<?xml version="1.0" encoding="UTF-8"?>
<svg version="1.1" xmlns="http://www.w3.org/2000/svg" width="3300" height="600">
<path d="M0 0 C3.63 0 7.26 0 11 0 C11 0.66 11 1.32 11 2 C13.31 2 15.62 2 18 2 C18 2.66 18 3.32 18 4 C19.65 4.33 21.3 4.66 23 5 C23 5.66 23 6.32 23 7 C24.65 7.66 26.3 8.32 28 9 C28 9.66 28 10.32 28 11 C28.66 11 29.32 11 30 11 C30 11.99 30 12.98 30 14 C30.99 14 31.98 14 33 14 C33 14.66 33 15.32 33 16 C33.66 16 34.32 16 35 16 C35 16.66 35 17.32 35 18 C35.66 18 36.32 18 37 18 C37 18.99 37 19.98 37 21 C37.99 21 38.98 21 40 21 C40 21.66 40 22.32 40 23 C40.66 23 41.32 23 42 23 C42 23.66 42 24.32 42 25 C42.66 25 43.32 25 44 25 C44 25.99 44 26.98 44 28 C44.99 28 45.98 28 47 28 C47 28.66 47 29.32 47 30 C47.66 30 48.32 30 49 30 C49.99 32.475 49.99 32.475 51 35 C51.99 35 52.98 35 54 35 C54 35.66 54 36.32 54 37 C54.66 37 55.32 37 56 37 C56 37.99 56 38.98 56 40 C56.66 40 57.32 40 58 40 C58 40.66 58 41.32 58 42 C58.99 42 59.98 42 61 42 C61 42.66 61 43.32 61 44 C61.66 44 62.32 44 63 44 C63 44.99 63 45.98 63 47 C63.66 47 64.32 47 65 47 C65 47.66 65 48.32 65 49 C65.99 49 66.98 49 68 49 C68 49.66 68 50.32 68 51 C68.66 51 69.32 51 70 51 C70 51.99 70 52.98 70 54 C70.66 54 71.32 54 72 54 C72 54.66 72 55.32 72 56 C72.99 56 73.98 56 75 56 C75 56.66 75 57.32 75 58 C75.66 58 76.32 58 77 58 C77 58.99 77 59.98 77 61 C78.65 61.66 80.3 62.32 82 63 C82 63.66 82 64.32 82 65 C82.66 65 83.32 65 84 65 C84 65.99 84 66.98 84 68 C84.99 68 85.98 68 87 68 C87 68.66 87 69.32 87 70 C87.66 70 88.32 70 89 70 C89 70.66 89 71.32 89 72 C89.66 72 90.32 72 91 72 C91 72.99 91 73.98 91 75 C91.99 75 92.98 75 94 75 C94 75.66 94 76.32 94 77 C94.66 77 95.32 77 96 77 C96 77.66 96 78.32 96 79 C96.66 79 97.32 79 98 79 C98 79.99 98 80.98 98 82 C98.99 82 99.98 82 101 82 C101 82.66 101 83.32 101 84 C101.66 84 102.32 84 103 84 C103.66 85.65 104.32 87.3 105 89 C105.99 89 106.98 89 108 89 C108 89.66 108 90.32 108 91 C108.66 91 109.32 91 110 91 C110 91.99 110 92.98 110 94 C110.66 94 111.32 94 112 94 C112 94.66 112 95.32 112 96 C112.99 96 113.98 96 115 96 C115 96.66 115 97.32 115 98 C115.66 98 116.32 98 117 98 C117 98.99 117 99.98 117 101 C117.66 101 118.32 101 119 101 C119 101.66 119 102.32 119 103 C119.99 103 120.98 103 122 103 C122 103.66 122 104.32 122 105 C122.66 105 123.32 105 124 105 C124 105.99 124 106.98 124 108 C124.66 108 125.32 108 126 108 C126 108.66 126 109.32 126 110 C126.99 110 127.98 110 129 110 C129 110.66 129 111.32 129 112 C129.66 112 130.32 112 131 112 C131 112.99 131 113.98 131 115 C131.99 115 132.98 115 134 115 C134 115.66 134 116.32 134 117 C134.66 117 135.32 117 136 117 C136 117.66 136 118.32 136 119 C136.66 119 137.32 119 138 119 C138 119.99 138 120.98 138 122 C138.99 122 139.98 122 141 122 C141 122.66 141 123.32 141 124 C141.66 124 142.32 124 143 124 C143 124.66 143 125.32 143 126 C143.66 126 144.32 126 145 126 C145 126.99 145 127.98 145 129 C145.99 129 146.98 129 148 129 C148 129.66 148 130.32 148 131 C148.66 131 149.32 131 150 131 C150 132.65 150 134.3 150 136 C150.66 136 151.32 136 152 136 C152 137.32 152 138.64 152 140 C152.99 140.33 153.98 140.66 155 141 C155 146.28 155 151.56 155 157 C154.01 157 153.02 157 152 157 C152 158.65 152 160.3 152 162 C151.34 162 150.68 162 150 162 C150 162.66 150 163.32 150 164 C149.34 164 148.68 164 148 164 C148 164.66 148 165.32 148 166 C147.01 166 146.02 166 145 166 C145 166.99 145 167.98 145 169 C144.34 169 143.68 169 143 169 C143 169.66 143 170.32 143 171 C142.34 171 141.68 171 141 171 C141 171.66 141 172.32 141 173 C140.01 173 139.02 173 138 173 C138 173.99 138 174.98 138 176 C137.34 176 136.68 176 136 176 C136 176.66 136 177.32 136 178 C135.34 178 134.68 178 134 178 C134 178.66 134 179.32 134 180 C133.01 180 132.02 180 131 180 C131 180.99 131 181.98 131 183 C130.34 183 129.68 183 129 183 C129 183.66 129 184.32 129 185 C128.34 185 127.68 185 127 185 C127 185.66 127 186.32 127 187 C126.01 187 125.02 187 124 187 C124 187.99 124 188.98 124 190 C123.34 190 122.68 190 122 190 C122 190.66 122 191.32 122 192 C121.01 192 120.02 192 119 192 C119 192.66 119 193.32 119 194 C118.34 194 117.68 194 117 194 C117 194.99 117 195.98 117 197 C116.34 197 115.68 197 115 197 C115 197.66 115 198.32 115 199 C114.01 199 113.02 199 112 199 C112 199.99 112 200.98 112 202 C111.34 202 110.68 202 110 202 C110 202.66 110 203.32 110 204 C109.34 204 108.68 204 108 204 C108 204.66 108 205.32 108 206 C107.01 206 106.02 206 105 206 C105 206.99 105 207.98 105 209 C104.34 209 103.68 209 103 209 C103 209.66 103 210.32 103 211 C102.34 211 101.68 211 101 211 C101 211.66 101 212.32 101 213 C100.01 213 99.02 213 98 213 C98 213.99 98 214.98 98 216 C97.34 216 96.68 216 96 216 C96 216.66 96 217.32 96 218 C95.34 218 94.68 218 94 218 C94 218.66 94 219.32 94 220 C93.01 220 92.02 220 91 220 C91 220.99 91 221.98 91 223 C90.34 223 89.68 223 89 223 C89 223.66 89 224.32 89 225 C86.69 225 84.38 225 82 225 C82 225.66 82 226.32 82 227 C79.03 227 76.06 227 73 227 C73 226.34 73 225.68 73 225 C70.36 225 67.72 225 65 225 C65 224.34 65 223.68 65 223 C63.68 223 62.36 223 61 223 C61 222.01 61 221.02 61 220 C60.01 220 59.02 220 58 220 C58 219.34 58 218.68 58 218 C57.34 218 56.68 218 56 218 C56 217.34 56 216.68 56 216 C55.34 216 54.68 216 54 216 C54 215.01 54 214.02 54 213 C53.01 213 52.02 213 51 213 C51 213.99 51 214.98 51 216 C50.34 216 49.68 216 49 216 C49 216.66 49 217.32 49 218 C48.34 218 47.68 218 47 218 C47 270.8 47 323.6 47 378 C47.66 378 48.32 378 49 378 C49 378.66 49 379.32 49 380 C49.66 380 50.32 380 51 380 C51 380.66 51 381.32 51 382 C59.58 382 68.16 382 77 382 C77 382.99 77 383.98 77 385 C77.99 385 78.98 385 80 385 C80.08714316 388.91652632 80.14043985 392.83280311 80.1875 396.75 C80.21263672 397.86117188 80.23777344 398.97234375 80.26367188 400.1171875 C80.27817383 401.72207031 80.27817383 401.72207031 80.29296875 403.359375 C80.3086792 404.34389648 80.32438965 405.32841797 80.34057617 406.34277344 C79.94497306 409.42932849 79.15196328 410.78329655 77 413 C74.73828125 413.390625 74.73828125 413.390625 72.3125 413.25 C71.50425781 413.21390625 70.69601562 413.1778125 69.86328125 413.140625 C69.24839844 413.09421875 68.63351562 413.0478125 68 413 C68 413.66 68 414.32 68 415 C67.01 415 66.02 415 65 415 C65 421.27 65 427.54 65 434 C65.99 434 66.98 434 68 434 C68 434.66 68 435.32 68 436 C69.32 436 70.64 436 72 436 C72 436.99 72 437.98 72 439 C73.65 439 75.3 439 77 439 C77 439.66 77 440.32 77 441 C77.99 441 78.98 441 80 441 C80 448.59 80 456.18 80 464 C79.01 464.33 78.02 464.66 77 465 C77 465.66 77 466.32 77 467 C76.34 467 75.68 467 75 467 C75 467.66 75 468.32 75 469 C66.42 469 57.84 469 49 469 C49 469.99 49 470.98 49 472 C48.34 472 47.68 472 47 472 C47 477.28 47 482.56 47 488 C46.01 488 45.02 488 44 488 C44 489.65 44 491.3 44 493 C43.34 493 42.68 493 42 493 C42 494.32 42 495.64 42 497 C41.34 497 40.68 497 40 497 C39.67 497.99 39.34 498.98 39 500 C37.68 500 36.36 500 35 500 C35 500.66 35 501.32 35 502 C33.35 502 31.7 502 30 502 C29.67 502.99 29.34 503.98 29 505 C14.15 505 -0.7 505 -16 505 C-16.495 503.515 -16.495 503.515 -17 502 C-19.31 502 -21.62 502 -24 502 C-24 501.34 -24 500.68 -24 500 C-24.66 500 -25.32 500 -26 500 C-26 499.01 -26 498.02 -26 497 C-26.66 497 -27.32 497 -28 497 C-28 496.34 -28 495.68 -28 495 C-28.99 495 -29.98 495 -31 495 C-31 493.35 -31 491.7 -31 490 C-31.66 490 -32.32 490 -33 490 C-33 404.2 -33 318.4 -33 230 C-33.99 229.67 -34.98 229.34 -36 229 C-36 226.03 -36 223.06 -36 220 C-36.66 220 -37.32 220 -38 220 C-38 217.69 -38 215.38 -38 213 C-38.66 213 -39.32 213 -40 213 C-40 211.68 -40 210.36 -40 209 C-40.99 208.67 -41.98 208.34 -43 208 C-43 207.34 -43 206.68 -43 206 C-43.66 206 -44.32 206 -45 206 C-45 205.34 -45 204.68 -45 204 C-45.66 204 -46.32 204 -47 204 C-48.625 202.625 -48.625 202.625 -50 201 C-50 200.34 -50 199.68 -50 199 C-50.66 199 -51.32 199 -52 199 C-52 198.34 -52 197.68 -52 197 C-52.66 197 -53.32 197 -54 197 C-54 196.01 -54 195.02 -54 194 C-54.99 194 -55.98 194 -57 194 C-57 193.34 -57 192.68 -57 192 C-57.66 192 -58.32 192 -59 192 C-59 191.34 -59 190.68 -59 190 C-59.66 190 -60.32 190 -61 190 C-61 189.01 -61 188.02 -61 187 C-61.99 187 -62.98 187 -64 187 C-64 186.34 -64 185.68 -64 185 C-64.66 185 -65.32 185 -66 185 C-66 184.34 -66 183.68 -66 183 C-66.66 183 -67.32 183 -68 183 C-68 182.01 -68 181.02 -68 180 C-68.99 180 -69.98 180 -71 180 C-71 179.34 -71 178.68 -71 178 C-71.66 178 -72.32 178 -73 178 C-73 177.34 -73 176.68 -73 176 C-73.66 176 -74.32 176 -75 176 C-75 175.01 -75 174.02 -75 173 C-75.99 173 -76.98 173 -78 173 C-78 172.34 -78 171.68 -78 171 C-78.66 171 -79.32 171 -80 171 C-80 170.34 -80 169.68 -80 169 C-80.66 169 -81.32 169 -82 169 C-82 168.01 -82 167.02 -82 166 C-82.99 166 -83.98 166 -85 166 C-85 165.34 -85 164.68 -85 164 C-85.66 164 -86.32 164 -87 164 C-87 163.34 -87 162.68 -87 162 C-87.99 161.67 -88.98 161.34 -90 161 C-90 160.34 -90 159.68 -90 159 C-90.66 159 -91.32 159 -92 159 C-92 158.34 -92 157.68 -92 157 C-92.66 157 -93.32 157 -94 157 C-94 156.34 -94 155.68 -94 155 C-94.99 154.67 -95.98 154.34 -97 154 C-97 153.34 -97 152.68 -97 152 C-97.66 152 -98.32 152 -99 152 C-99 151.34 -99 150.68 -99 150 C-99.66 150 -100.32 150 -101 150 C-101 149.01 -101 148.02 -101 147 C-101.99 147 -102.98 147 -104 147 C-104 146.34 -104 145.68 -104 145 C-104.66 145 -105.32 145 -106 145 C-106 144.34 -106 143.68 -106 143 C-106.66 143 -107.32 143 -108 143 C-108 142.01 -108 141.02 -108 140 C-108.99 140 -109.98 140 -111 140 C-111 138.68 -111 137.36 -111 136 C-111.66 136 -112.32 136 -113 136 C-113 135.01 -113 134.02 -113 133 C-113.66 133 -114.32 133 -115 133 C-115 126.07 -115 119.14 -115 112 C-114.34 112 -113.68 112 -113 112 C-113 110.68 -113 109.36 -113 108 C-112.34 108 -111.68 108 -111 108 C-111 107.01 -111 106.02 -111 105 C-110.01 105 -109.02 105 -108 105 C-108 104.34 -108 103.68 -108 103 C-107.34 103 -106.68 103 -106 103 C-106 102.34 -106 101.68 -106 101 C-105.34 101 -104.68 101 -104 101 C-104 100.01 -104 99.02 -104 98 C-103.01 98 -102.02 98 -101 98 C-101 97.34 -101 96.68 -101 96 C-100.34 96 -99.68 96 -99 96 C-99 95.34 -99 94.68 -99 94 C-98.34 94 -97.68 94 -97 94 C-97 93.01 -97 92.02 -97 91 C-96.01 91 -95.02 91 -94 91 C-94 90.34 -94 89.68 -94 89 C-93.34 89 -92.68 89 -92 89 C-92 88.01 -92 87.02 -92 86 C-91.34 86 -90.68 86 -90 86 C-90 85.34 -90 84.68 -90 84 C-89.01 84 -88.02 84 -87 84 C-87 83.34 -87 82.68 -87 82 C-86.34 82 -85.68 82 -85 82 C-85 81.01 -85 80.02 -85 79 C-82.525 78.01 -82.525 78.01 -80 77 C-80 76.34 -80 75.68 -80 75 C-79.34 75 -78.68 75 -78 75 C-78 74.01 -78 73.02 -78 72 C-77.01 72 -76.02 72 -75 72 C-75 71.34 -75 70.68 -75 70 C-74.34 70 -73.68 70 -73 70 C-73 69.34 -73 68.68 -73 68 C-72.34 68 -71.68 68 -71 68 C-71 67.01 -71 66.02 -71 65 C-70.01 65 -69.02 65 -68 65 C-68 64.34 -68 63.68 -68 63 C-67.34 63 -66.68 63 -66 63 C-66 62.34 -66 61.68 -66 61 C-65.34 61 -64.68 61 -64 61 C-64 60.01 -64 59.02 -64 58 C-63.01 58 -62.02 58 -61 58 C-61 57.34 -61 56.68 -61 56 C-60.34 56 -59.68 56 -59 56 C-59 55.34 -59 54.68 -59 54 C-58.34 54 -57.68 54 -57 54 C-57 53.01 -57 52.02 -57 51 C-56.01 51 -55.02 51 -54 51 C-54 50.34 -54 49.68 -54 49 C-53.34 49 -52.68 49 -52 49 C-52 48.34 -52 47.68 -52 47 C-51.34 47 -50.68 47 -50 47 C-50 46.01 -50 45.02 -50 44 C-49.01 44 -48.02 44 -47 44 C-47 43.34 -47 42.68 -47 42 C-46.34 42 -45.68 42 -45 42 C-44.34 40.35 -43.68 38.7 -43 37 C-42.01 37 -41.02 37 -40 37 C-40 36.34 -40 35.68 -40 35 C-39.34 35 -38.68 35 -38 35 C-38 34.01 -38 33.02 -38 32 C-37.34 32 -36.68 32 -36 32 C-36 31.34 -36 30.68 -36 30 C-35.01 30 -34.02 30 -33 30 C-33 29.34 -33 28.68 -33 28 C-32.34 28 -31.68 28 -31 28 C-31 27.01 -31 26.02 -31 25 C-30.01 25 -29.02 25 -28 25 C-28 24.34 -28 23.68 -28 23 C-27.34 23 -26.68 23 -26 23 C-26 22.34 -26 21.68 -26 21 C-25.34 21 -24.68 21 -24 21 C-24 20.01 -24 19.02 -24 18 C-23.01 18 -22.02 18 -21 18 C-21 17.34 -21 16.68 -21 16 C-20.34 16 -19.68 16 -19 16 C-19 15.34 -19 14.68 -19 14 C-18.34 14 -17.68 14 -17 14 C-17 13.01 -17 12.02 -17 11 C-16.01 11 -15.02 11 -14 11 C-14 10.34 -14 9.68 -14 9 C-13.34 9 -12.68 9 -12 9 C-12 8.34 -12 7.68 -12 7 C-11.34 7 -10.68 7 -10 7 C-10 6.01 -10 5.02 -10 4 C-9.01 4 -8.02 4 -7 4 C-7 3.34 -7 2.68 -7 2 C-4.69 2 -2.38 2 0 2 C0 1.34 0 0.68 0 0 Z M2 51 C1.67 51.66 1.34 52.32 1 53 C-2.0625 53.625 -2.0625 53.625 -5 54 C-5 54.66 -5 55.32 -5 56 C-6.65 56 -8.3 56 -10 56 C-10 56.66 -10 57.32 -10 58 C-10.66 58 -11.32 58 -12 58 C-12 58.99 -12 59.98 -12 61 C-12.66 61 -13.32 61 -14 61 C-14 62.32 -14 63.64 -14 65 C-14.99 65 -15.98 65 -17 65 C-17 66.65 -17 68.3 -17 70 C-17.66 70 -18.32 70 -19 70 C-19 75.28 -19 80.56 -19 86 C-18.34 86 -17.68 86 -17 86 C-17 87.65 -17 89.3 -17 91 C-16.34 91.33 -15.68 91.66 -15 92 C-14.375 94.0625 -14.375 94.0625 -14 96 C-13.34 96 -12.68 96 -12 96 C-12 96.66 -12 97.32 -12 98 C-10.35 98 -8.7 98 -7 98 C-7 98.99 -7 99.98 -7 101 C-5.68 101 -4.36 101 -3 101 C-3 101.66 -3 102.32 -3 103 C3.27 103 9.54 103 16 103 C16 102.34 16 101.68 16 101 C17.65 101 19.3 101 21 101 C21 100.01 21 99.02 21 98 C21.66 98 22.32 98 23 98 C23 97.34 23 96.68 23 96 C23.99 96 24.98 96 26 96 C26 95.34 26 94.68 26 94 C26.66 94 27.32 94 28 94 C28 92.35 28 90.7 28 89 C28.66 89 29.32 89 30 89 C30 87.35 30 85.7 30 84 C30.99 84 31.98 84 33 84 C33 80.04 33 76.08 33 72 C32.01 72 31.02 72 30 72 C30 69.69 30 67.38 30 65 C29.34 65 28.68 65 28 65 C28 63.68 28 62.36 28 61 C27.34 61 26.68 61 26 61 C26 60.01 26 59.02 26 58 C25.01 58 24.02 58 23 58 C23 57.34 23 56.68 23 56 C20.195261 54.76261515 17.79629321 53.96866049 14.75 53.5 C13.8425 53.335 12.935 53.17 12 53 C11.67 52.34 11.34 51.68 11 51 C8.03 51 5.06 51 2 51 Z " fill="#30C284" transform="translate(611,44)"/>
<path d="M0 0 C13.86 0 27.72 0 42 0 C42 0.66 42 1.32 42 2 C44.64 2 47.28 2 50 2 C50 2.66 50 3.32 50 4 C51.32 4 52.64 4 54 4 C54 4.99 54 5.98 54 7 C54.99 7 55.98 7 57 7 C57 7.66 57 8.32 57 9 C57.66 9 58.32 9 59 9 C59 10.65 59 12.3 59 14 C59.66 14 60.32 14 61 14 C61 100.79 61 187.58 61 277 C61.99 277 62.98 277 64 277 C64 279.97 64 282.94 64 286 C64.66 286 65.32 286 66 286 C66 287.65 66 289.3 66 291 C66.66 291 67.32 291 68 291 C68.12375 291.639375 68.2475 292.27875 68.375 292.9375 C68.58125 293.618125 68.7875 294.29875 69 295 C69.66 295.33 70.32 295.66 71 296 C71 296.66 71 297.32 71 298 C71.66 298 72.32 298 73 298 C73 299.65 73 301.3 73 303 C73.66 303 74.32 303 75 303 C75 303.66 75 304.32 75 305 C75.99 305 76.98 305 78 305 C78 305.66 78 306.32 78 307 C78.66 307 79.32 307 80 307 C80 307.99 80 308.98 80 310 C80.66 310 81.32 310 82 310 C82 310.66 82 311.32 82 312 C82.99 312 83.98 312 85 312 C85 312.66 85 313.32 85 314 C85.66 314 86.32 314 87 314 C87 314.99 87 315.98 87 317 C87.66 317 88.32 317 89 317 C89 317.66 89 318.32 89 319 C89.99 319 90.98 319 92 319 C92 319.66 92 320.32 92 321 C92.66 321 93.32 321 94 321 C94 321.99 94 322.98 94 324 C95.65 324.66 97.3 325.32 99 326 C99 326.66 99 327.32 99 328 C99.66 328 100.32 328 101 328 C101 328.99 101 329.98 101 331 C101.99 331 102.98 331 104 331 C104 331.66 104 332.32 104 333 C104.66 333 105.32 333 106 333 C106 333.66 106 334.32 106 335 C106.66 335 107.32 335 108 335 C108 335.99 108 336.98 108 338 C108.99 338 109.98 338 111 338 C111 338.66 111 339.32 111 340 C111.66 340 112.32 340 113 340 C113 340.66 113 341.32 113 342 C113.66 342 114.32 342 115 342 C115 342.99 115 343.98 115 345 C115.99 345 116.98 345 118 345 C118 345.66 118 346.32 118 347 C118.66 347 119.32 347 120 347 C120 347.99 120 348.98 120 350 C120.66 350 121.32 350 122 350 C122 350.66 122 351.32 122 352 C122.99 352 123.98 352 125 352 C125 352.66 125 353.32 125 354 C125.66 354 126.32 354 127 354 C127 354.99 127 355.98 127 357 C127.66 357 128.32 357 129 357 C129 357.66 129 358.32 129 359 C129.99 359 130.98 359 132 359 C132 359.66 132 360.32 132 361 C132.66 361 133.32 361 134 361 C134 361.99 134 362.98 134 364 C134.66 364 135.32 364 136 364 C136 364.66 136 365.32 136 366 C136.99 366 137.98 366 139 366 C139 366.66 139 367.32 139 368 C139.66 368 140.32 368 141 368 C141 369.65 141 371.3 141 373 C141.66 373 142.32 373 143 373 C143 379.27 143 385.54 143 392 C142.34 392 141.68 392 141 392 C141 393.32 141 394.64 141 396 C140.34 396 139.68 396 139 396 C139 396.99 139 397.98 139 399 C138.01 399 137.02 399 136 399 C136 399.66 136 400.32 136 401 C135.34 401 134.68 401 134 401 C134 401.99 134 402.98 134 404 C133.34 404 132.68 404 132 404 C132 404.66 132 405.32 132 406 C131.01 406 130.02 406 129 406 C129 406.66 129 407.32 129 408 C128.34 408 127.68 408 127 408 C127 408.99 127 409.98 127 411 C126.34 411 125.68 411 125 411 C125 411.66 125 412.32 125 413 C124.01 413 123.02 413 122 413 C122 413.66 122 414.32 122 415 C121.34 415 120.68 415 120 415 C120 415.99 120 416.98 120 418 C119.34 418 118.68 418 118 418 C118 418.66 118 419.32 118 420 C117.01 420 116.02 420 115 420 C115 420.66 115 421.32 115 422 C114.34 422 113.68 422 113 422 C113 422.99 113 423.98 113 425 C112.34 425 111.68 425 111 425 C111 425.66 111 426.32 111 427 C110.01 427 109.02 427 108 427 C108 427.66 108 428.32 108 429 C107.34 429 106.68 429 106 429 C106 429.99 106 430.98 106 432 C105.34 432 104.68 432 104 432 C104 432.66 104 433.32 104 434 C103.01 434 102.02 434 101 434 C101 434.66 101 435.32 101 436 C100.34 436 99.68 436 99 436 C99 436.99 99 437.98 99 439 C97.35 439.66 95.7 440.32 94 441 C94 441.66 94 442.32 94 443 C93.34 443 92.68 443 92 443 C92 443.99 92 444.98 92 446 C91.01 446 90.02 446 89 446 C89 446.66 89 447.32 89 448 C88.34 448 87.68 448 87 448 C87 448.66 87 449.32 87 450 C86.34 450 85.68 450 85 450 C85 450.99 85 451.98 85 453 C84.01 453 83.02 453 82 453 C82 453.66 82 454.32 82 455 C81.34 455 80.68 455 80 455 C80 455.99 80 456.98 80 458 C79.34 458 78.68 458 78 458 C78 458.66 78 459.32 78 460 C77.01 460 76.02 460 75 460 C75 460.66 75 461.32 75 462 C74.34 462 73.68 462 73 462 C73 462.99 73 463.98 73 465 C72.34 465 71.68 465 71 465 C71 465.66 71 466.32 71 467 C70.01 467 69.02 467 68 467 C68 467.66 68 468.32 68 469 C67.34 469 66.68 469 66 469 C66 469.99 66 470.98 66 472 C65.34 472 64.68 472 64 472 C64 472.66 64 473.32 64 474 C63.01 474 62.02 474 61 474 C61 474.66 61 475.32 61 476 C60.34 476 59.68 476 59 476 C59 476.99 59 477.98 59 479 C58.34 479 57.68 479 57 479 C57 479.66 57 480.32 57 481 C56.01 481 55.02 481 54 481 C54 481.66 54 482.32 54 483 C53.34 483 52.68 483 52 483 C52 483.99 52 484.98 52 486 C51.34 486 50.68 486 50 486 C50 486.66 50 487.32 50 488 C49.01 488 48.02 488 47 488 C47 488.66 47 489.32 47 490 C46.34 490 45.68 490 45 490 C45 490.99 45 491.98 45 493 C44.01 493 43.02 493 42 493 C42 493.66 42 494.32 42 495 C41.34 495 40.68 495 40 495 C40 495.66 40 496.32 40 497 C39.34 497 38.68 497 38 497 C38 497.99 38 498.98 38 500 C37.01 500 36.02 500 35 500 C35 500.66 35 501.32 35 502 C33.68 502 32.36 502 31 502 C31 502.66 31 503.32 31 504 C27.57767028 505.14077657 24.91326783 505.09815117 21.3125 505.0625 C20.13300781 505.05347656 18.95351563 505.04445313 17.73828125 505.03515625 C16.83464844 505.02355469 15.93101562 505.01195312 15 505 C14.67 504.01 14.34 503.02 14 502 C12.6078125 502.061875 12.6078125 502.061875 11.1875 502.125 C8 502 8 502 5 500 C5 499.01 5 498.02 5 497 C4.34 497 3.68 497 3 497 C3 496.34 3 495.68 3 495 C2.01 495 1.02 495 0 495 C0 494.34 0 493.68 0 493 C-0.66 493 -1.32 493 -2 493 C-2 492.01 -2 491.02 -2 490 C-2.66 490 -3.32 490 -4 490 C-4 489.34 -4 488.68 -4 488 C-4.99 488 -5.98 488 -7 488 C-7 487.34 -7 486.68 -7 486 C-7.66 486 -8.32 486 -9 486 C-9 485.01 -9 484.02 -9 483 C-9.99 483 -10.98 483 -12 483 C-12 482.34 -12 481.68 -12 481 C-12.66 481 -13.32 481 -14 481 C-14 480.34 -14 479.68 -14 479 C-14.66 479 -15.32 479 -16 479 C-16 478.01 -16 477.02 -16 476 C-16.99 476 -17.98 476 -19 476 C-19 475.34 -19 474.68 -19 474 C-19.66 474 -20.32 474 -21 474 C-21 473.34 -21 472.68 -21 472 C-21.66 472 -22.32 472 -23 472 C-23 471.01 -23 470.02 -23 469 C-23.99 469 -24.98 469 -26 469 C-26 468.34 -26 467.68 -26 467 C-26.66 467 -27.32 467 -28 467 C-28 466.34 -28 465.68 -28 465 C-28.66 465 -29.32 465 -30 465 C-30 464.01 -30 463.02 -30 462 C-30.99 462 -31.98 462 -33 462 C-33 461.34 -33 460.68 -33 460 C-33.66 460 -34.32 460 -35 460 C-35 459.34 -35 458.68 -35 458 C-35.66 458 -36.32 458 -37 458 C-37 457.01 -37 456.02 -37 455 C-37.99 455 -38.98 455 -40 455 C-40 454.34 -40 453.68 -40 453 C-40.66 453 -41.32 453 -42 453 C-42 452.01 -42 451.02 -42 450 C-42.66 450 -43.32 450 -44 450 C-44 449.34 -44 448.68 -44 448 C-44.99 448 -45.98 448 -47 448 C-47 447.34 -47 446.68 -47 446 C-47.66 446 -48.32 446 -49 446 C-49 445.01 -49 444.02 -49 443 C-49.66 443 -50.32 443 -51 443 C-51 442.34 -51 441.68 -51 441 C-51.99 441 -52.98 441 -54 441 C-54 440.34 -54 439.68 -54 439 C-54.66 439 -55.32 439 -56 439 C-56 438.01 -56 437.02 -56 436 C-56.66 436 -57.32 436 -58 436 C-58 435.34 -58 434.68 -58 434 C-58.99 434 -59.98 434 -61 434 C-61 433.34 -61 432.68 -61 432 C-61.66 432 -62.32 432 -63 432 C-63 431.01 -63 430.02 -63 429 C-63.99 429 -64.98 429 -66 429 C-66 428.34 -66 427.68 -66 427 C-66.66 427 -67.32 427 -68 427 C-68 426.34 -68 425.68 -68 425 C-68.66 425 -69.32 425 -70 425 C-70 424.01 -70 423.02 -70 422 C-70.99 422 -71.98 422 -73 422 C-73 421.34 -73 420.68 -73 420 C-73.66 420 -74.32 420 -75 420 C-75 419.34 -75 418.68 -75 418 C-75.66 418 -76.32 418 -77 418 C-77 417.01 -77 416.02 -77 415 C-77.99 415 -78.98 415 -80 415 C-80 414.34 -80 413.68 -80 413 C-80.66 413 -81.32 413 -82 413 C-82 412.34 -82 411.68 -82 411 C-82.66 411 -83.32 411 -84 411 C-84 410.01 -84 409.02 -84 408 C-84.99 408 -85.98 408 -87 408 C-87 407.34 -87 406.68 -87 406 C-87.66 406 -88.32 406 -89 406 C-89 405.34 -89 404.68 -89 404 C-89.66 404 -90.32 404 -91 404 C-91 403.01 -91 402.02 -91 401 C-91.99 401 -92.98 401 -94 401 C-94 400.34 -94 399.68 -94 399 C-94.66 399 -95.32 399 -96 399 C-96 398.01 -96 397.02 -96 396 C-96.66 396 -97.32 396 -98 396 C-98 395.34 -98 394.68 -98 394 C-98.99 394 -99.98 394 -101 394 C-101 393.34 -101 392.68 -101 392 C-101.66 392 -102.32 392 -103 392 C-103 391.01 -103 390.02 -103 389 C-103.66 389 -104.32 389 -105 389 C-105 388.34 -105 387.68 -105 387 C-105.99 387 -106.98 387 -108 387 C-108 386.34 -108 385.68 -108 385 C-108.66 385 -109.32 385 -110 385 C-110 384.01 -110 383.02 -110 382 C-110.99 382 -111.98 382 -113 382 C-113 381.34 -113 380.68 -113 380 C-113.66 380 -114.32 380 -115 380 C-115 379.34 -115 378.68 -115 378 C-115.66 378 -116.32 378 -117 378 C-117 377.01 -117 376.02 -117 375 C-117.99 375 -118.98 375 -120 375 C-120 374.34 -120 373.68 -120 373 C-120.66 373 -121.32 373 -122 373 C-122 372.34 -122 371.68 -122 371 C-122.66 371 -123.32 371 -124 371 C-124 369.35 -124 367.7 -124 366 C-124.66 366 -125.32 366 -126 366 C-127.65497356 362.69005287 -127.10084335 359.00877 -127.0625 355.375 C-127.05573242 354.17230469 -127.05573242 354.17230469 -127.04882812 352.9453125 C-127.03703168 350.96350994 -127.01909605 348.98174567 -127 347 C-126.01 347 -125.02 347 -124 347 C-124 345.35 -124 343.7 -124 342 C-123.34 342 -122.68 342 -122 342 C-122 341.34 -122 340.68 -122 340 C-121.34 340 -120.68 340 -120 340 C-120 339.34 -120 338.68 -120 338 C-119.01 338 -118.02 338 -117 338 C-117 337.01 -117 336.02 -117 335 C-116.34 335 -115.68 335 -115 335 C-115 334.34 -115 333.68 -115 333 C-114.34 333 -113.68 333 -113 333 C-113 332.34 -113 331.68 -113 331 C-112.01 331 -111.02 331 -110 331 C-110 330.01 -110 329.02 -110 328 C-109.34 328 -108.68 328 -108 328 C-108 327.34 -108 326.68 -108 326 C-107.01 326 -106.02 326 -105 326 C-105 325.34 -105 324.68 -105 324 C-104.34 324 -103.68 324 -103 324 C-103 323.01 -103 322.02 -103 321 C-102.34 321 -101.68 321 -101 321 C-101 320.34 -101 319.68 -101 319 C-100.01 319 -99.02 319 -98 319 C-98 318.34 -98 317.68 -98 317 C-97.34 317 -96.68 317 -96 317 C-96 316.01 -96 315.02 -96 314 C-95.34 314 -94.68 314 -94 314 C-94 313.34 -94 312.68 -94 312 C-93.01 312 -92.02 312 -91 312 C-91 311.34 -91 310.68 -91 310 C-90.34 310 -89.68 310 -89 310 C-89 309.01 -89 308.02 -89 307 C-88.34 307 -87.68 307 -87 307 C-87 306.34 -87 305.68 -87 305 C-86.01 305 -85.02 305 -84 305 C-84 304.34 -84 303.68 -84 303 C-83.34 303 -82.68 303 -82 303 C-82 302.01 -82 301.02 -82 300 C-81.34 300 -80.68 300 -80 300 C-80 299.34 -80 298.68 -80 298 C-79.01 298 -78.02 298 -77 298 C-76.34 296.35 -75.68 294.7 -75 293 C-74.34 293 -73.68 293 -73 293 C-73 292.34 -73 291.68 -73 291 C-72.01 291 -71.02 291 -70 291 C-70 290.01 -70 289.02 -70 288 C-69.34 288 -68.68 288 -68 288 C-68 287.34 -68 286.68 -68 286 C-67.34 286 -66.68 286 -66 286 C-66 285.34 -66 284.68 -66 284 C-65.01 284 -64.02 284 -63 284 C-63 283.01 -63 282.02 -63 281 C-59.64880481 278.76586987 -58.5822245 278.76152238 -54.67578125 278.8046875 C-53.64775391 278.81113281 -52.61972656 278.81757813 -51.56054688 278.82421875 C-50.48869141 278.84097656 -49.41683594 278.85773438 -48.3125 278.875 C-47.22904297 278.88402344 -46.14558594 278.89304687 -45.02929688 278.90234375 C-42.3526429 278.9259266 -39.67643203 278.95883874 -37 279 C-37 279.66 -37 280.32 -37 281 C-35.68 281.33 -34.36 281.66 -33 282 C-33 282.66 -33 283.32 -33 284 C-32.01 284 -31.02 284 -30 284 C-30 284.66 -30 285.32 -30 286 C-29.34 286 -28.68 286 -28 286 C-28 286.66 -28 287.32 -28 288 C-27.34 288 -26.68 288 -26 288 C-26 288.99 -26 289.98 -26 291 C-24.35 291 -22.7 291 -21 291 C-21 290.01 -21 289.02 -21 288 C-20.34 288 -19.68 288 -19 288 C-19 234.54 -19 181.08 -19 126 C-19.66 126 -20.32 126 -21 126 C-21 125.34 -21 124.68 -21 124 C-22.65 124 -24.3 124 -26 124 C-26 123.34 -26 122.68 -26 122 C-33.59 122 -41.18 122 -49 122 C-49 121.01 -49 120.02 -49 119 C-49.66 119 -50.32 119 -51 119 C-51 110.75 -51 102.5 -51 94 C-50.34 94 -49.68 94 -49 94 C-49 93.01 -49 92.02 -49 91 C-46.03 91 -43.06 91 -40 91 C-40 90.34 -40 89.68 -40 89 C-39.01 89 -38.02 89 -37 89 C-37 82.73 -37 76.46 -37 70 C-37.99 70 -38.98 70 -40 70 C-40 69.34 -40 68.68 -40 68 C-42.31 68 -44.62 68 -47 68 C-47 67.01 -47 66.02 -47 65 C-47.66 65 -48.32 65 -49 65 C-49 64.34 -49 63.68 -49 63 C-49.66 63 -50.32 63 -51 63 C-51 55.08 -51 47.16 -51 39 C-50.34 39 -49.68 39 -49 39 C-49 38.34 -49 37.68 -49 37 C-48.34 37 -47.68 37 -47 37 C-47 36.34 -47 35.68 -47 35 C-38.42 35 -29.84 35 -21 35 C-21 34.01 -21 33.02 -21 32 C-20.34 32 -19.68 32 -19 32 C-19 26.72 -19 21.44 -19 16 C-18.01 16 -17.02 16 -16 16 C-16 14.35 -16 12.7 -16 11 C-15.34 11 -14.68 11 -14 11 C-14 9.68 -14 8.36 -14 7 C-13.01 7 -12.02 7 -11 7 C-11 6.01 -11 5.02 -11 4 C-9.68 4 -8.36 4 -7 4 C-7 3.34 -7 2.68 -7 2 C-4.69 2 -2.38 2 0 2 C0 1.34 0 0.68 0 0 Z M14 401 C14 401.66 14 402.32 14 403 C12.35 403.33 10.7 403.66 9 404 C9 404.66 9 405.32 9 406 C7.68 406 6.36 406 5 406 C5 406.66 5 407.32 5 408 C4.34 408 3.68 408 3 408 C1.29209912 409.20747941 1.29209912 409.20747941 0 411 C0 412.32 0 413.64 0 415 C-0.66 415 -1.32 415 -2 415 C-2 416.65 -2 418.3 -2 420 C-2.66 420 -3.32 420 -4 420 C-4 424.62 -4 429.24 -4 434 C-3.34 434 -2.68 434 -2 434 C-2 435.65 -2 437.3 -2 439 C-1.34 439 -0.68 439 0 439 C0 440.32 0 441.64 0 443 C1.29209912 444.79252059 1.29209912 444.79252059 3 446 C3.66 446 4.32 446 5 446 C5 446.66 5 447.32 5 448 C5.639375 448.12375 6.27875 448.2475 6.9375 448.375 C7.618125 448.58125 8.29875 448.7875 9 449 C9.33 449.66 9.66 450.32 10 451 C11.32 451 12.64 451 14 451 C14 451.66 14 452.32 14 453 C18.62 453 23.24 453 28 453 C28 452.34 28 451.68 28 451 C29.65 451 31.3 451 33 451 C33 450.01 33 449.02 33 448 C34.65 448 36.3 448 38 448 C38 447.34 38 446.68 38 446 C38.66 446 39.32 446 40 446 C40 445.01 40 444.02 40 443 C40.99 442.67 41.98 442.34 43 442 C43 441.01 43 440.02 43 439 C43.66 439 44.32 439 45 439 C45 437.35 45 435.7 45 434 C45.66 434 46.32 434 47 434 C47 428.72 47 423.44 47 418 C46.34 418 45.68 418 45 418 C45 416.35 45 414.7 45 413 C44.34 413 43.68 413 43 413 C42.505 411.515 42.505 411.515 42 410 C41.34 410 40.68 410 40 410 C40 409.34 40 408.68 40 408 C39.34 408 38.68 408 38 408 C38 407.34 38 406.68 38 406 C37.01 406 36.02 406 35 406 C35 405.34 35 404.68 35 404 C33.68 404 32.36 404 31 404 C31 403.01 31 402.02 31 401 C25.39 401 19.78 401 14 401 Z " fill="#2FC284" transform="translate(944,44)"/>
<path d="M0 0 C16.17 0 32.34 0 49 0 C49 0.66 49 1.32 49 2 C49.99 2.33 50.98 2.66 52 3 C52 3.66 52 4.32 52 5 C52.66 5 53.32 5 54 5 C54 5.66 54 6.32 54 7 C54.66 7 55.32 7 56 7 C56 7.99 56 8.98 56 10 C56.99 10 57.98 10 59 10 C59 10.66 59 11.32 59 12 C59.66 12 60.32 12 61 12 C61 12.66 61 13.32 61 14 C61.66 14 62.32 14 63 14 C63 15.65 63 17.3 63 19 C63.99 19 64.98 19 66 19 C66 19.66 66 20.32 66 21 C66.66 21 67.32 21 68 21 C68 21.99 68 22.98 68 24 C68.66 24 69.32 24 70 24 C70 24.66 70 25.32 70 26 C70.99 26 71.98 26 73 26 C73 26.66 73 27.32 73 28 C73.66 28 74.32 28 75 28 C75 29.65 75 31.3 75 33 C75.99 33 76.98 33 78 33 C78 33.66 78 34.32 78 35 C78.66 35 79.32 35 80 35 C80 35.99 80 36.98 80 38 C80.66 38 81.32 38 82 38 C82 38.66 82 39.32 82 40 C82.99 40 83.98 40 85 40 C85.99 42.475 85.99 42.475 87 45 C87.66 45 88.32 45 89 45 C89 46.32 89 47.64 89 49 C90.485 49.495 90.485 49.495 92 50 C92 50.66 92 51.32 92 52 C92.66 52 93.32 52 94 52 C94 52.66 94 53.32 94 54 C94.66 54 95.32 54 96 54 C97.625 55.375 97.625 55.375 99 57 C99 57.66 99 58.32 99 59 C99.66 59 100.32 59 101 59 C101 60.65 101 62.3 101 64 C101.66 64 102.32 64 103 64 C103 64.66 103 65.32 103 66 C103.99 66 104.98 66 106 66 C106 66.66 106 67.32 106 68 C106.66 68 107.32 68 108 68 C108 68.99 108 69.98 108 71 C108.66 71 109.32 71 110 71 C110 71.66 110 72.32 110 73 C110.99 73 111.98 73 113 73 C113 74.65 113 76.3 113 78 C113.66 78 114.32 78 115 78 C115 78.66 115 79.32 115 80 C115.66 80 116.32 80 117 80 C117 80.66 117 81.32 117 82 C117.99 82 118.98 82 120 82 C120 82.99 120 83.98 120 85 C120.66 85 121.32 85 122 85 C122 85.66 122 86.32 122 87 C122.66 87 123.32 87 124 87 C124 87.66 124 88.32 124 89 C124.99 89.33 125.98 89.66 127 90 C127 91.32 127 92.64 127 94 C127.66 94 128.32 94 129 94 C129 94.66 129 95.32 129 96 C129.99 96.33 130.98 96.66 132 97 C132 97.66 132 98.32 132 99 C132.66 99 133.32 99 134 99 C134 99.66 134 100.32 134 101 C134.66 101 135.32 101 136 101 C136 101.99 136 102.98 136 104 C136.99 104.33 137.98 104.66 139 105 C139 105.99 139 106.98 139 108 C139.66 108 140.32 108 141 108 C141 108.99 141 109.98 141 111 C141.66 111 142.32 111 143 111 C143 111.66 143 112.32 143 113 C143.99 113 144.98 113 146 113 C146 113.66 146 114.32 146 115 C146.66 115 147.32 115 148 115 C148 115.99 148 116.98 148 118 C148.66 118 149.32 118 150 118 C150 119.32 150 120.64 150 122 C150.99 122 151.98 122 153 122 C153 122.99 153 123.98 153 125 C153.66 125 154.32 125 155 125 C155 125.66 155 126.32 155 127 C155.66 127 156.32 127 157 127 C157 127.66 157 128.32 157 129 C157.99 129 158.98 129 160 129 C160 129.99 160 130.98 160 132 C160.66 132 161.32 132 162 132 C162 132.66 162 133.32 162 134 C162.66 134 163.32 134 164 134 C164 135.65 164 137.3 164 139 C164.99 139 165.98 139 167 139 C167 139.66 167 140.32 167 141 C167.66 141 168.32 141 169 141 C169 141.66 169 142.32 169 143 C169.66 143 170.32 143 171 143 C171 143.99 171 144.98 171 146 C171.99 146 172.98 146 174 146 C174 146.66 174 147.32 174 148 C174.66 148 175.32 148 176 148 C176 149.65 176 151.3 176 153 C176.99 153 177.98 153 179 153 C179 153.66 179 154.32 179 155 C179.66 155 180.32 155 181 155 C181 155.66 181 156.32 181 157 C181.66 157 182.32 157 183 157 C183 157.99 183 158.98 183 160 C183.99 160 184.98 160 186 160 C186 160.66 186 161.32 186 162 C186.66 162 187.32 162 188 162 C188 163.65 188 165.3 188 167 C188.66 167 189.32 167 190 167 C190 167.66 190 168.32 190 169 C190.99 169 191.98 169 193 169 C193 169.99 193 170.98 193 172 C193.66 172 194.32 172 195 172 C195 172.66 195 173.32 195 174 C195.66 174 196.32 174 197 174 C197 174.66 197 175.32 197 176 C197.99 176.33 198.98 176.66 200 177 C200 177.66 200 178.32 200 179 C200.66 179 201.32 179 202 179 C202 180.32 202 181.64 202 183 C202.66 183 203.32 183 204 183 C204 183.99 204 184.98 204 186 C204.99 186 205.98 186 207 186 C207 186.66 207 187.32 207 188 C207.66 188 208.32 188 209 188 C209 188.66 209 189.32 209 190 C209.66 190 210.32 190 211 190 C211 190.99 211 191.98 211 193 C211.99 193 212.98 193 214 193 C214 194.32 214 195.64 214 197 C214.66 197 215.32 197 216 197 C216 197.99 216 198.98 216 200 C216.66 200 217.32 200 218 200 C218 200.66 218 201.32 218 202 C218.99 202 219.98 202 221 202 C223 205 223 205 223 209 C224.32 209.66 225.64 210.32 227 211 C227.33 143.02 227.66 75.04 228 5 C228.66 5 229.32 5 230 5 C230 4.01 230 3.02 230 2 C230.99 2 231.98 2 233 2 C233 1.34 233 0.68 233 0 C250.82 0 268.64 0 287 0 C287 0.66 287 1.32 287 2 C288.98 2.495 288.98 2.495 291 3 C291 112.23 291 221.46 291 334 C290.34 334 289.68 334 289 334 C289 334.66 289 335.32 289 336 C274.15 336 259.3 336 244 336 C244 335.34 244 334.68 244 334 C243.34 334 242.68 334 242 334 C242 333.01 242 332.02 242 331 C241.34 331 240.68 331 240 331 C240 330.34 240 329.68 240 329 C239.01 329 238.02 329 237 329 C237 328.01 237 327.02 237 326 C236.34 326 235.68 326 235 326 C235 324.68 235 323.36 235 322 C234.34 322 233.68 322 233 322 C233 321.34 233 320.68 233 320 C232.01 319.67 231.02 319.34 230 319 C230 318.34 230 317.68 230 317 C229.34 317 228.68 317 228 317 C228 316.34 228 315.68 228 315 C227.34 315 226.68 315 226 315 C226 314.01 226 313.02 226 312 C225.01 312 224.02 312 223 312 C223 310.68 223 309.36 223 308 C222.34 308 221.68 308 221 308 C221 307.01 221 306.02 221 305 C220.01 305 219.02 305 218 305 C218 304.34 218 303.68 218 303 C217.34 303 216.68 303 216 303 C216 302.34 216 301.68 216 301 C215.34 301 214.68 301 214 301 C214 300.01 214 299.02 214 298 C213.01 297.67 212.02 297.34 211 297 C211 296.01 211 295.02 211 294 C210.34 294 209.68 294 209 294 C209 293.01 209 292.02 209 291 C208.34 291 207.68 291 207 291 C207 290.34 207 289.68 207 289 C206.01 289 205.02 289 204 289 C204 288.34 204 287.68 204 287 C203.34 287 202.68 287 202 287 C202 286.01 202 285.02 202 284 C201.34 284 200.68 284 200 284 C200 283.34 200 282.68 200 282 C199.01 281.67 198.02 281.34 197 281 C197 279.68 197 278.36 197 277 C196.34 277 195.68 277 195 277 C195 276.34 195 275.68 195 275 C194.34 275 193.68 275 193 275 C193 274.34 193 273.68 193 273 C192.01 272.67 191.02 272.34 190 272 C190 271.34 190 270.68 190 270 C189.34 270 188.68 270 188 270 C188 269.34 188 268.68 188 268 C187.34 268 186.68 268 186 268 C186 266.35 186 264.7 186 263 C185.01 263 184.02 263 183 263 C183 262.34 183 261.68 183 261 C182.34 261 181.68 261 181 261 C181 260.01 181 259.02 181 258 C180.34 258 179.68 258 179 258 C179 257.34 179 256.68 179 256 C178.01 256 177.02 256 176 256 C176 255.34 176 254.68 176 254 C175.34 254 174.68 254 174 254 C174 252.35 174 250.7 174 249 C172.35 248.34 170.7 247.68 169 247 C169 246.01 169 245.02 169 244 C168.34 244 167.68 244 167 244 C167 243.34 167 242.68 167 242 C165.35 241.34 163.7 240.68 162 240 C162 238.35 162 236.7 162 235 C161.34 235 160.68 235 160 235 C160 234.34 160 233.68 160 233 C159.01 233 158.02 233 157 233 C157 232.01 157 231.02 157 230 C156.34 230 155.68 230 155 230 C155 229.34 155 228.68 155 228 C154.34 228 153.68 228 153 228 C153 227.34 153 226.68 153 226 C152.01 225.67 151.02 225.34 150 225 C150 224.34 150 223.68 150 223 C149.34 223 148.68 223 148 223 C148 221.68 148 220.36 148 219 C147.34 219 146.68 219 146 219 C146 218.01 146 217.02 146 216 C145.01 216 144.02 216 143 216 C143 215.34 143 214.68 143 214 C142.34 214 141.68 214 141 214 C141 213.01 141 212.02 141 211 C140.34 211 139.68 211 139 211 C139 210.34 139 209.68 139 209 C138.01 208.67 137.02 208.34 136 208 C136 206.68 136 205.36 136 204 C135.34 204 134.68 204 134 204 C134 203.34 134 202.68 134 202 C133.34 202 132.68 202 132 202 C132 201.34 132 200.68 132 200 C131.01 200 130.02 200 129 200 C129 199.01 129 198.02 129 197 C128.34 197 127.68 197 127 197 C127 196.34 127 195.68 127 195 C126.34 195 125.68 195 125 195 C125 193.35 125 191.7 125 190 C124.01 190 123.02 190 122 190 C122 189.34 122 188.68 122 188 C121.34 188 120.68 188 120 188 C120 187.34 120 186.68 120 186 C119.01 185.67 118.02 185.34 117 185 C117 184.34 117 183.68 117 183 C116.34 183 115.68 183 115 183 C115 182.34 115 181.68 115 181 C114.34 181 113.68 181 113 181 C110 176.61538462 110 176.61538462 110 174 C109.34 174 108.68 174 108 174 C108 173.34 108 172.68 108 172 C107.34 172 106.68 172 106 172 C106 171.01 106 170.02 106 169 C105.01 169 104.02 169 103 169 C103 168.34 103 167.68 103 167 C102.34 167 101.68 167 101 167 C101 166.01 101 165.02 101 164 C100.34 164 99.68 164 99 164 C99 162.68 99 161.36 99 160 C98.01 160 97.02 160 96 160 C96 159.01 96 158.02 96 157 C95.34 157 94.68 157 94 157 C94 156.34 94 155.68 94 155 C93.34 155 92.68 155 92 155 C92 154.34 92 153.68 92 153 C91.01 153 90.02 153 89 153 C89 152.01 89 151.02 89 150 C88.34 150 87.68 150 87 150 C87 148.68 87 147.36 87 146 C86.34 146 85.68 146 85 146 C85 145.01 85 144.02 85 143 C84.01 143 83.02 143 82 143 C82 142.34 82 141.68 82 141 C81.34 141 80.68 141 80 141 C80 140.34 80 139.68 80 139 C79.34 139 78.68 139 78 139 C78 138.01 78 137.02 78 136 C77.01 136 76.02 136 75 136 C75 134.68 75 133.36 75 132 C74.34 132 73.68 132 73 132 C73 131.01 73 130.02 73 129 C72.34 129 71.68 129 71 129 C71 128.34 71 127.68 71 127 C70.01 127 69.02 127 68 127 C68 126.34 68 125.68 68 125 C67.34 125 66.68 125 66 125 C66 124.01 66 123.02 66 122 C65.34 122 64.68 122 64 122 C63.67 120.68 63.34 119.36 63 118 C62.34 118 61.68 118 61 118 C61 188.29 61 258.58 61 331 C60.34 331 59.68 331 59 331 C59 331.99 59 332.98 59 334 C58.01 334 57.02 334 56 334 C56 334.66 56 335.32 56 336 C37.52 336 19.04 336 0 336 C0 335.34 0 334.68 0 334 C-0.66 334 -1.32 334 -2 334 C-2 333.01 -2 332.02 -2 331 C-2.99 331 -3.98 331 -5 331 C-5 223.42 -5 115.84 -5 5 C-4.01 5 -3.02 5 -2 5 C-2 4.01 -2 3.02 -2 2 C-1.34 2 -0.68 2 0 2 C0 1.34 0 0.68 0 0 Z M59 115 C59 115.99 59 116.98 59 118 C59.66 118 60.32 118 61 118 C61 117.01 61 116.02 61 115 C60.34 115 59.68 115 59 115 Z " fill="#D5F2E5" transform="translate(1172,128)"/>
<path d="M0 0 C9.24 0 18.48 0 28 0 C28 0.66 28 1.32 28 2 C32.62 2 37.24 2 42 2 C42 2.99 42 3.98 42 5 C44.97 5 47.94 5 51 5 C51 5.66 51 6.32 51 7 C53.31 7 55.62 7 58 7 C58 7.66 58 8.32 58 9 C59.65 9 61.3 9 63 9 C63 9.99 63 10.98 63 12 C64.65 12 66.3 12 68 12 C68 12.66 68 13.32 68 14 C69.32 14 70.64 14 72 14 C72 14.66 72 15.32 72 16 C72.99 16 73.98 16 75 16 C75 13.69 75 11.38 75 9 C75.66 9 76.32 9 77 9 C77 7.68 77 6.36 77 5 C77.66 5 78.32 5 79 5 C79 4.01 79 3.02 79 2 C79.99 2 80.98 2 82 2 C82 1.34 82 0.68 82 0 C99.82 0 117.64 0 136 0 C136 0.66 136 1.32 136 2 C137.32 2 138.64 2 140 2 C140 2.99 140 3.98 140 5 C140.99 5 141.98 5 143 5 C143 88.49 143 171.98 143 258 C142.01 258 141.02 258 140 258 C140 258.99 140 259.98 140 261 C139.34 261 138.68 261 138 261 C138 261.66 138 262.32 138 263 C130.48958306 263.04632915 122.97918094 263.08187214 115.46865368 263.10362434 C111.98124839 263.11406404 108.49394084 263.12822649 105.0065918 263.15087891 C100.99787454 263.17675512 96.98926003 263.18647123 92.98046875 263.1953125 C91.72727341 263.20563507 90.47407806 263.21595764 89.1829071 263.22659302 C88.02193008 263.22674408 86.86095306 263.22689514 85.66479492 263.22705078 C84.64109299 263.231492 83.61739105 263.23593323 82.56266785 263.24050903 C80 263 80 263 77 261 C76.8125 258.375 76.8125 258.375 77 256 C76.34 256 75.68 256 75 256 C75 253.69 75 251.38 75 249 C74.01 249 73.02 249 72 249 C72 249.66 72 250.32 72 251 C65.5 254 65.5 254 61 254 C61 254.66 61 255.32 61 256 C59.35 256 57.7 256 56 256 C56 256.66 56 257.32 56 258 C52.7 258 49.4 258 46 258 C46 258.99 46 259.98 46 261 C43.03 261 40.06 261 37 261 C37 261.66 37 262.32 37 263 C21.49 263 5.98 263 -10 263 C-10 262.34 -10 261.68 -10 261 C-12.97 261 -15.94 261 -19 261 C-19 260.01 -19 259.02 -19 258 C-22.3 258 -25.6 258 -29 258 C-29 257.34 -29 256.68 -29 256 C-31.31 256 -33.62 256 -36 256 C-36 255.34 -36 254.68 -36 254 C-37.32 254 -38.64 254 -40 254 C-40 253.01 -40 252.02 -40 251 C-41.65 251 -43.3 251 -45 251 C-45 250.34 -45 249.68 -45 249 C-46.65 249 -48.3 249 -50 249 C-50 248.34 -50 247.68 -50 247 C-51.32 247 -52.64 247 -54 247 C-54 246.01 -54 245.02 -54 244 C-55.65 244 -57.3 244 -59 244 C-59 243.34 -59 242.68 -59 242 C-59.99 242 -60.98 242 -62 242 C-62 241.01 -62 240.02 -62 239 C-63.32 239 -64.64 239 -66 239 C-66 238.34 -66 237.68 -66 237 C-66.99 237 -67.98 237 -69 237 C-69 236.34 -69 235.68 -69 235 C-69.66 235 -70.32 235 -71 235 C-71 234.01 -71 233.02 -71 232 C-72.65 232 -74.3 232 -76 232 C-76 231.34 -76 230.68 -76 230 C-76.66 230 -77.32 230 -78 230 C-78 229.34 -78 228.68 -78 228 C-78.66 228 -79.32 228 -80 228 C-80 227.01 -80 226.02 -80 225 C-80.99 225 -81.98 225 -83 225 C-83 224.34 -83 223.68 -83 223 C-83.66 223 -84.32 223 -85 223 C-85 222.34 -85 221.68 -85 221 C-85.66 221 -86.32 221 -87 221 C-87 220.01 -87 219.02 -87 218 C-87.99 218 -88.98 218 -90 218 C-90 217.34 -90 216.68 -90 216 C-90.66 216 -91.32 216 -92 216 C-94 213 -94 213 -94 209 C-94.99 209 -95.98 209 -97 209 C-97 208.34 -97 207.68 -97 207 C-97.66 207 -98.32 207 -99 207 C-99 205.35 -99 203.7 -99 202 C-99.66 202 -100.32 202 -101 202 C-101 201.34 -101 200.68 -101 200 C-101.99 199.67 -102.98 199.34 -104 199 C-104 197.68 -104 196.36 -104 195 C-104.66 195 -105.32 195 -106 195 C-106 193.35 -106 191.7 -106 190 C-106.99 189.67 -107.98 189.34 -109 189 C-109 187.68 -109 186.36 -109 185 C-109.66 185 -110.32 185 -111 185 C-111 183.68 -111 182.36 -111 181 C-111.66 181 -112.32 181 -113 181 C-113 178.69 -113 176.38 -113 174 C-113.99 173.67 -114.98 173.34 -116 173 C-116 170.03 -116 167.06 -116 164 C-116.66 164 -117.32 164 -118 164 C-118 160.04 -118 156.08 -118 152 C-118.66 152 -119.32 152 -120 152 C-120 139.13 -120 126.26 -120 113 C-119.34 113 -118.68 113 -118 113 C-118 108.38 -118 103.76 -118 99 C-117.34 99 -116.68 99 -116 99 C-116 96.69 -116 94.38 -116 92 C-115.01 92 -114.02 92 -113 92 C-113.04125 90.948125 -113.0825 89.89625 -113.125 88.8125 C-113.00852125 85.25989827 -112.52791932 83.15133359 -111 80 C-110.34 80 -109.68 80 -109 80 C-108.67 77.69 -108.34 75.38 -108 73 C-107.34 73 -106.68 73 -106 73 C-106 71.35 -106 69.7 -106 68 C-105.34 68 -104.68 68 -104 68 C-104 67.34 -104 66.68 -104 66 C-103.01 66 -102.02 66 -101 66 C-101 64.35 -101 62.7 -101 61 C-100.34 61 -99.68 61 -99 61 C-99 60.34 -99 59.68 -99 59 C-98.34 59 -97.68 59 -97 59 C-97 57.35 -97 55.7 -97 54 C-96.01 54 -95.02 54 -94 54 C-94 53.34 -94 52.68 -94 52 C-93.34 52 -92.68 52 -92 52 C-92 51.01 -92 50.02 -92 49 C-91.34 49 -90.68 49 -90 49 C-90 48.34 -90 47.68 -90 47 C-89.01 47 -88.02 47 -87 47 C-87 46.34 -87 45.68 -87 45 C-86.34 45 -85.68 45 -85 45 C-85 44.01 -85 43.02 -85 42 C-84.34 42 -83.68 42 -83 42 C-83 41.34 -83 40.68 -83 40 C-82.01 40 -81.02 40 -80 40 C-80 39.34 -80 38.68 -80 38 C-79.34 38 -78.68 38 -78 38 C-78 37.01 -78 36.02 -78 35 C-77.34 35 -76.68 35 -76 35 C-76 34.34 -76 33.68 -76 33 C-75.01 33 -74.02 33 -73 33 C-73 32.01 -73 31.02 -73 30 C-72.34 30 -71.68 30 -71 30 C-71 29.34 -71 28.68 -71 28 C-69.35 28 -67.7 28 -66 28 C-66 27.34 -66 26.68 -66 26 C-65.34 26 -64.68 26 -64 26 C-64 25.01 -64 24.02 -64 23 C-63.01 23 -62.02 23 -61 23 C-61 22.34 -61 21.68 -61 21 C-59.68 21 -58.36 21 -57 21 C-57 20.34 -57 19.68 -57 19 C-55.35 19 -53.7 19 -52 19 C-52 18.01 -52 17.02 -52 16 C-50.35 16 -48.7 16 -47 16 C-47 15.34 -47 14.68 -47 14 C-45.68 14 -44.36 14 -43 14 C-43 13.34 -43 12.68 -43 12 C-41.35 12 -39.7 12 -38 12 C-38 11.01 -38 10.02 -38 9 C-35.69 9 -33.38 9 -31 9 C-31 8.34 -31 7.68 -31 7 C-28.69 7 -26.38 7 -24 7 C-24 6.34 -24 5.68 -24 5 C-21.03 5 -18.06 5 -15 5 C-14.67 4.01 -14.34 3.02 -14 2 C-9.38 2 -4.76 2 0 2 C0 1.34 0 0.68 0 0 Z M-1 61 C-1 61.66 -1 62.32 -1 63 C-3.97 63 -6.94 63 -10 63 C-10 63.99 -10 64.98 -10 66 C-11.65 66 -13.3 66 -15 66 C-15 66.66 -15 67.32 -15 68 C-16.32 68 -17.64 68 -19 68 C-19 68.66 -19 69.32 -19 70 C-20.65 70 -22.3 70 -24 70 C-24 70.99 -24 71.98 -24 73 C-24.66 73 -25.32 73 -26 73 C-26 73.66 -26 74.32 -26 75 C-27.65 75 -29.3 75 -31 75 C-31 75.66 -31 76.32 -31 77 C-31.66 77 -32.32 77 -33 77 C-33 77.99 -33 78.98 -33 80 C-33.99 80 -34.98 80 -36 80 C-36 81.32 -36 82.64 -36 84 C-36.66 84 -37.32 84 -38 84 C-38 84.99 -38 85.98 -38 87 C-38.66 87 -39.32 87 -40 87 C-40 87.66 -40 88.32 -40 89 C-40.99 89 -41.98 89 -43 89 C-43 90.65 -43 92.3 -43 94 C-43.66 94 -44.32 94 -45 94 C-45 95.65 -45 97.3 -45 99 C-45.66 99 -46.32 99 -47 99 C-47.33 101.31 -47.66 103.62 -48 106 C-48.66 106 -49.32 106 -50 106 C-50 108.31 -50 110.62 -50 113 C-50.66 113 -51.32 113 -52 113 C-52 125.21 -52 137.42 -52 150 C-51.34 150 -50.68 150 -50 150 C-50 153.3 -50 156.6 -50 160 C-49.01 160 -48.02 160 -47 160 C-47 161.32 -47 162.64 -47 164 C-46.34 164 -45.68 164 -45 164 C-45 165.65 -45 167.3 -45 169 C-44.34 169 -43.68 169 -43 169 C-43 170.65 -43 172.3 -43 174 C-42.01 174 -41.02 174 -40 174 C-40 174.66 -40 175.32 -40 176 C-39.34 176 -38.68 176 -38 176 C-38 177.65 -38 179.3 -38 181 C-37.34 181 -36.68 181 -36 181 C-36 181.66 -36 182.32 -36 183 C-35.01 183 -34.02 183 -33 183 C-33 183.66 -33 184.32 -33 185 C-32.34 185 -31.68 185 -31 185 C-31 185.99 -31 186.98 -31 188 C-30.34 188 -29.68 188 -29 188 C-29 188.66 -29 189.32 -29 190 C-27.35 190 -25.7 190 -24 190 C-24 190.99 -24 191.98 -24 193 C-23.34 193 -22.68 193 -22 193 C-22 193.66 -22 194.32 -22 195 C-20.35 195 -18.7 195 -17 195 C-17 195.66 -17 196.32 -17 197 C-15.35 197 -13.7 197 -12 197 C-12 197.99 -12 198.98 -12 200 C-9.69 200 -7.38 200 -5 200 C-5 200.66 -5 201.32 -5 202 C4.9 202 14.8 202 25 202 C25 201.34 25 200.68 25 200 C27.31 200 29.62 200 32 200 C32 199.01 32 198.02 32 197 C33.65 197 35.3 197 37 197 C37 196.34 37 195.68 37 195 C38.65 195 40.3 195 42 195 C42 194.34 42 193.68 42 193 C42.66 193 43.32 193 44 193 C44 192.01 44 191.02 44 190 C44.99 190 45.98 190 47 190 C47 189.34 47 188.68 47 188 C48.32 188 49.64 188 51 188 C51 187.01 51 186.02 51 185 C51.99 185 52.98 185 54 185 C54 183.68 54 182.36 54 181 C54.66 181 55.32 181 56 181 C56 180.01 56 179.02 56 178 C56.66 178 57.32 178 58 178 C58 177.34 58 176.68 58 176 C58.99 176 59.98 176 61 176 C61 174.35 61 172.7 61 171 C61.66 171 62.32 171 63 171 C63 169.68 63 168.36 63 167 C63.66 167 64.32 167 65 167 C65 165.35 65 163.7 65 162 C65.99 162 66.98 162 68 162 C68 159.69 68 157.38 68 155 C68.66 155 69.32 155 70 155 C70 151.04 70 147.08 70 143 C70.66 143 71.32 143 72 143 C72 135.41 72 127.82 72 120 C71.34 120 70.68 120 70 120 C70 116.7 70 113.4 70 110 C69.34 110 68.68 110 68 110 C68 107.69 68 105.38 68 103 C67.01 103 66.02 103 65 103 C65 100.69 65 98.38 65 96 C64.34 96 63.68 96 63 96 C63 94.68 63 93.36 63 92 C62.34 92 61.68 92 61 92 C61 91.01 61 90.02 61 89 C60.01 89 59.02 89 58 89 C58 87.35 58 85.7 58 84 C57.34 84 56.68 84 56 84 C56 83.34 56 82.68 56 82 C55.34 82 54.68 82 54 82 C54 81.34 54 80.68 54 80 C53.01 80 52.02 80 51 80 C51 79.01 51 78.02 51 77 C50.34 77 49.68 77 49 77 C49 76.34 49 75.68 49 75 C48.34 75 47.68 75 47 75 C47 74.34 47 73.68 47 73 C46.01 73 45.02 73 44 73 C44 72.01 44 71.02 44 70 C42.35 70 40.7 70 39 70 C39 69.34 39 68.68 39 68 C37.68 68 36.36 68 35 68 C35 67.34 35 66.68 35 66 C33.35 66 31.7 66 30 66 C30 65.01 30 64.02 30 63 C27.03 63 24.06 63 21 63 C21 62.34 21 61.68 21 61 C13.74 61 6.48 61 -1 61 Z " fill="#D5F2E5" transform="translate(2112,201)"/>
<path d="M0 0 C12.21 0 24.42 0 37 0 C37 0.99 37 1.98 37 3 C40.96 3 44.92 3 49 3 C49 3.66 49 4.32 49 5 C52.3 5 55.6 5 59 5 C59 5.66 59 6.32 59 7 C61.64 7 64.28 7 67 7 C67.33 7.99 67.66 8.98 68 10 C69.65 10 71.3 10 73 10 C73 10.66 73 11.32 73 12 C74.32 12 75.64 12 77 12 C77 12.66 77 13.32 77 14 C78.65 14 80.3 14 82 14 C82 14.99 82 15.98 82 17 C83.65 17 85.3 17 87 17 C87 17.66 87 18.32 87 19 C88.32 19 89.64 19 91 19 C91 19.66 91 20.32 91 21 C92.65 21.33 94.3 21.66 96 22 C96 22.66 96 23.32 96 24 C96.99 24 97.98 24 99 24 C99 24.66 99 25.32 99 26 C99.66 26 100.32 26 101 26 C101 26.66 101 27.32 101 28 C102.65 28.33 104.3 28.66 106 29 C106 29.66 106 30.32 106 31 C106.66 31 107.32 31 108 31 C108 31.66 108 32.32 108 33 C108.66 33 109.32 33 110 33 C110 33.99 110 34.98 110 36 C110.99 36 111.98 36 113 36 C113 36.66 113 37.32 113 38 C113.66 38 114.32 38 115 38 C115 38.66 115 39.32 115 40 C115.66 40 116.32 40 117 40 C117 40.99 117 41.98 117 43 C117.99 43 118.98 43 120 43 C120 43.66 120 44.32 120 45 C120.66 45 121.32 45 122 45 C122 46.65 122 48.3 122 50 C122.66 50 123.32 50 124 50 C124 50.66 124 51.32 124 52 C124.99 52 125.98 52 127 52 C127 52.66 127 53.32 127 54 C127.66 54 128.32 54 129 54 C129 55.65 129 57.3 129 59 C129.66 59 130.32 59 131 59 C131 59.66 131 60.32 131 61 C131.99 61.33 132.98 61.66 134 62 C134 63.32 134 64.64 134 66 C134.66 66 135.32 66 136 66 C136 67.65 136 69.3 136 71 C136.66 71 137.32 71 138 71 C138 73.31 138 75.62 138 78 C138.99 78 139.98 78 141 78 C141 79.65 141 81.3 141 83 C141.66 83 142.32 83 143 83 C143 85.97 143 88.94 143 92 C143.99 92.33 144.98 92.66 146 93 C146 95.64 146 98.28 146 101 C146.66 101 147.32 101 148 101 C148 106.61 148 112.22 148 118 C148.66 118 149.32 118 150 118 C150 126.25 150 134.5 150 143 C149.34 143 148.68 143 148 143 C148 146.3 148 149.6 148 153 C147.01 153 146.02 153 145 153 C145 153.66 145 154.32 145 155 C83.29 155 21.58 155 -42 155 C-42 157.31 -42 159.62 -42 162 C-41.34 162 -40.68 162 -40 162 C-40 163.65 -40 165.3 -40 167 C-39.34 167 -38.68 167 -38 167 C-38 167.66 -38 168.32 -38 169 C-37.01 169.33 -36.02 169.66 -35 170 C-35 171.32 -35 172.64 -35 174 C-34.34 174 -33.68 174 -33 174 C-33 174.66 -33 175.32 -33 176 C-32.34 176 -31.68 176 -31 176 C-31 176.99 -31 177.98 -31 179 C-30.01 179 -29.02 179 -28 179 C-28 179.66 -28 180.32 -28 181 C-27.34 181 -26.68 181 -26 181 C-26 181.66 -26 182.32 -26 183 C-25.34 183 -24.68 183 -24 183 C-24 183.99 -24 184.98 -24 186 C-23.01 186 -22.02 186 -21 186 C-21 186.66 -21 187.32 -21 188 C-19.68 188 -18.36 188 -17 188 C-17 188.99 -17 189.98 -17 191 C-16.01 191 -15.02 191 -14 191 C-14 191.66 -14 192.32 -14 193 C-12.68 193 -11.36 193 -10 193 C-10 193.66 -10 194.32 -10 195 C-8.35 195 -6.7 195 -5 195 C-5 195.99 -5 196.98 -5 198 C-4.36191406 197.98839844 -3.72382812 197.97679687 -3.06640625 197.96484375 C-2.24011719 197.95582031 -1.41382813 197.94679688 -0.5625 197.9375 C0.26121094 197.92589844 1.08492187 197.91429687 1.93359375 197.90234375 C4 198 4 198 5 199 C6.92478813 199.15806531 8.8549921 199.251135 10.78515625 199.31640625 C11.95498047 199.35830078 13.12480469 199.40019531 14.33007812 199.44335938 C15.56177734 199.48267578 16.79347656 199.52199219 18.0625 199.5625 C19.29806641 199.60568359 20.53363281 199.64886719 21.80664062 199.69335938 C24.87097335 199.79984198 27.93539073 199.90185424 31 200 C31 199.34 31 198.68 31 198 C33.31 198 35.62 198 38 198 C38 197.01 38 196.02 38 195 C40.31 195 42.62 195 45 195 C45 194.34 45 193.68 45 193 C45.66 193 46.32 193 47 193 C47 192.34 47 191.68 47 191 C48.65 191 50.3 191 52 191 C52 190.01 52 189.02 52 188 C52.66 188 53.32 188 54 188 C54 187.34 54 186.68 54 186 C54.66 186 55.32 186 56 186 C56.33 185.01 56.66 184.02 57 183 C57.66 183 58.32 183 59 183 C59 182.34 59 181.68 59 181 C59.66 181 60.32 181 61 181 C61 180.34 61 179.68 61 179 C61.66 179 62.32 179 63 179 C63.33 178.01 63.66 177.02 64 176 C84.46 176 104.92 176 126 176 C126.33 176.99 126.66 177.98 127 179 C128.32 179 129.64 179 131 179 C131 179.66 131 180.32 131 181 C131.99 181 132.98 181 134 181 C134 182.65 134 184.3 134 186 C134.66 186 135.32 186 136 186 C136 187.32 136 188.64 136 190 C135.34 190 134.68 190 134 190 C134.061875 191.093125 134.12375 192.18625 134.1875 193.3125 C134 197 134 197 132.625 198.9375 C131 200 131 200 129 200 C129 201.65 129 203.3 129 205 C128.34 205 127.68 205 127 205 C127 206.32 127 207.64 127 209 C126.01 209 125.02 209 124 209 C124 209.99 124 210.98 124 212 C123.34 212 122.68 212 122 212 C122 212.66 122 213.32 122 214 C121.34 214 120.68 214 120 214 C119.67 215.65 119.34 217.3 119 219 C118.34 219 117.68 219 117 219 C117 219.66 117 220.32 117 221 C116.34 221 115.68 221 115 221 C115 221.66 115 222.32 115 223 C114.34 223 113.68 223 113 223 C112.67 223.99 112.34 224.98 112 226 C111.34 226 110.68 226 110 226 C110 226.66 110 227.32 110 228 C109.34 228 108.68 228 108 228 C108 228.66 108 229.32 108 230 C106.35 230 104.7 230 103 230 C103 230.99 103 231.98 103 233 C102.34 233 101.68 233 101 233 C101 233.66 101 234.32 101 235 C100.34 235 99.68 235 99 235 C99 235.66 99 236.32 99 237 C98.01 237 97.02 237 96 237 C96 237.99 96 238.98 96 240 C94.35 240 92.7 240 91 240 C91 240.66 91 241.32 91 242 C89.68 242 88.36 242 87 242 C86.67 242.99 86.34 243.98 86 245 C85.34 245 84.68 245 84 245 C84 245.66 84 246.32 84 247 C82.68 247 81.36 247 80 247 C80 247.66 80 248.32 80 249 C77.69 249 75.38 249 73 249 C72.67 249.99 72.34 250.98 72 252 C70.68 252 69.36 252 68 252 C68 252.66 68 253.32 68 254 C65.03 254 62.06 254 59 254 C59 254.66 59 255.32 59 256 C55.7 256 52.4 256 49 256 C49 256.99 49 257.98 49 259 C43.72 259 38.44 259 33 259 C33 259.66 33 260.32 33 261 C24.42 261 15.84 261 7 261 C7 260.34 7 259.68 7 259 C1.72 259 -3.56 259 -9 259 C-9 258.01 -9 257.02 -9 256 C-12.3 256 -15.6 256 -19 256 C-19 255.34 -19 254.68 -19 254 C-21.31 254 -23.62 254 -26 254 C-26 253.34 -26 252.68 -26 252 C-28.31 252 -30.62 252 -33 252 C-33 251.01 -33 250.02 -33 249 C-35.31 249 -37.62 249 -40 249 C-40 248.34 -40 247.68 -40 247 C-41.65 247 -43.3 247 -45 247 C-45 246.34 -45 245.68 -45 245 C-46.32 244.67 -47.64 244.34 -49 244 C-49 243.34 -49 242.68 -49 242 C-49.99 242 -50.98 242 -52 242 C-52 241.34 -52 240.68 -52 240 C-53.32 240 -54.64 240 -56 240 C-56 239.01 -56 238.02 -56 237 C-57.65 237 -59.3 237 -61 237 C-61 236.34 -61 235.68 -61 235 C-62.65 234.34 -64.3 233.68 -66 233 C-66 232.01 -66 231.02 -66 230 C-67.175625 229.7834375 -67.175625 229.7834375 -68.375 229.5625 C-71 229 -71 229 -73 228 C-73 227.34 -73 226.68 -73 226 C-73.66 226 -74.32 226 -75 226 C-75 225.01 -75 224.02 -75 223 C-75.99 223 -76.98 223 -78 223 C-78 222.34 -78 221.68 -78 221 C-78.66 221 -79.32 221 -80 221 C-80 220.34 -80 219.68 -80 219 C-80.66 219 -81.32 219 -82 219 C-82 218.01 -82 217.02 -82 216 C-82.99 216 -83.98 216 -85 216 C-85 215.34 -85 214.68 -85 214 C-85.66 214 -86.32 214 -87 214 C-89 211 -89 211 -89 207 C-89.99 207 -90.98 207 -92 207 C-92 206.34 -92 205.68 -92 205 C-92.66 205 -93.32 205 -94 205 C-94 203.35 -94 201.7 -94 200 C-94.66 200 -95.32 200 -96 200 C-96 199.01 -96 198.02 -96 197 C-96.99 197 -97.98 197 -99 197 C-99 195.68 -99 194.36 -99 193 C-99.66 193 -100.32 193 -101 193 C-101 191.35 -101 189.7 -101 188 C-101.66 188 -102.32 188 -103 188 C-103 185.69 -103 183.38 -103 181 C-103.99 181 -104.98 181 -106 181 C-106 179.35 -106 177.7 -106 176 C-106.66 176 -107.32 176 -108 176 C-108 173.69 -108 171.38 -108 169 C-108.66 169 -109.32 169 -110 169 C-110 165.37 -110 161.74 -110 158 C-110.99 158 -111.98 158 -113 158 C-113 140.84 -113 123.68 -113 106 C-112.01 106 -111.02 106 -110 106 C-110 102.04 -110 98.08 -110 94 C-109.34 94 -108.68 94 -108 94 C-108 91.03 -108 88.06 -108 85 C-107.34 85 -106.68 85 -106 85 C-106 83.35 -106 81.7 -106 80 C-105.01 80 -104.02 80 -103 80 C-103 77.69 -103 75.38 -103 73 C-102.34 73 -101.68 73 -101 73 C-101 71.35 -101 69.7 -101 68 C-100.34 68 -99.68 68 -99 68 C-99 66.68 -99 65.36 -99 64 C-98.01 64 -97.02 64 -96 64 C-96 62.35 -96 60.7 -96 59 C-95.34 59 -94.68 59 -94 59 C-94 58.34 -94 57.68 -94 57 C-93.34 57 -92.68 57 -92 57 C-92 55.35 -92 53.7 -92 52 C-91.01 52 -90.02 52 -89 52 C-89 51.34 -89 50.68 -89 50 C-88.34 50 -87.68 50 -87 50 C-87 49.01 -87 48.02 -87 47 C-86.34 47 -85.68 47 -85 47 C-84.67 45.68 -84.34 44.36 -84 43 C-83.34 43 -82.68 43 -82 43 C-82 42.01 -82 41.02 -82 40 C-81.34 40 -80.68 40 -80 40 C-80 39.34 -80 38.68 -80 38 C-79.34 38 -78.68 38 -78 38 C-78 37.34 -78 36.68 -78 36 C-77.01 36 -76.02 36 -75 36 C-75 35.01 -75 34.02 -75 33 C-74.34 33 -73.68 33 -73 33 C-73 32.34 -73 31.68 -73 31 C-71.35 31 -69.7 31 -68 31 C-68 30.01 -68 29.02 -68 28 C-67.34 28 -66.68 28 -66 28 C-66 27.34 -66 26.68 -66 26 C-65.01 26 -64.02 26 -63 26 C-63 25.34 -63 24.68 -63 24 C-61.68 24 -60.36 24 -59 24 C-59 23.01 -59 22.02 -59 21 C-58.01 21 -57.02 21 -56 21 C-56 20.34 -56 19.68 -56 19 C-54.68 19 -53.36 19 -52 19 C-52 18.34 -52 17.68 -52 17 C-50.35 17 -48.7 17 -47 17 C-47 16.01 -47 15.02 -47 14 C-45.35 14 -43.7 14 -42 14 C-42 13.34 -42 12.68 -42 12 C-40.68 12 -39.36 12 -38 12 C-38 11.34 -38 10.68 -38 10 C-35.69 10 -33.38 10 -31 10 C-31 9.01 -31 8.02 -31 7 C-28.69 7 -26.38 7 -24 7 C-24 6.34 -24 5.68 -24 5 C-20.7 5 -17.4 5 -14 5 C-14 4.34 -14 3.68 -14 3 C-9.38 3 -4.76 3 0 3 C0 2.01 0 1.02 0 0 Z M12 59 C12 59.66 12 60.32 12 61 C8.04 61 4.08 61 0 61 C0 61.99 0 62.98 0 64 C-2.31 64 -4.62 64 -7 64 C-7 64.66 -7 65.32 -7 66 C-8.65 66 -10.3 66 -12 66 C-12 66.66 -12 67.32 -12 68 C-13.65 68 -15.3 68 -17 68 C-17 68.99 -17 69.98 -17 71 C-17.66 71 -18.32 71 -19 71 C-19 71.66 -19 72.32 -19 73 C-20.65 73 -22.3 73 -24 73 C-24 73.66 -24 74.32 -24 75 C-24.66 75 -25.32 75 -26 75 C-26 75.99 -26 76.98 -26 78 C-26.66 78 -27.32 78 -28 78 C-28 78.66 -28 79.32 -28 80 C-28.99 80 -29.98 80 -31 80 C-31 80.66 -31 81.32 -31 82 C-31.66 82 -32.32 82 -33 82 C-33 83.65 -33 85.3 -33 87 C-33.66 87 -34.32 87 -35 87 C-36.70790088 88.20747941 -36.70790088 88.20747941 -38 90 C-38 91.32 -38 92.64 -38 94 C-38.66 94 -39.32 94 -40 94 C-40 95.65 -40 97.3 -40 99 C-40.66 99 -41.32 99 -42 99 C-42 100.65 -42 102.3 -42 104 C-3.39 104 35.22 104 75 104 C75 103.01 75 102.02 75 101 C74.34 101 73.68 101 73 101 C73 99.35 73 97.7 73 96 C72.34 95.67 71.68 95.34 71 95 C70.67 94.01 70.34 93.02 70 92 C69.34 92 68.68 92 68 92 C68 90.35 68 88.7 68 87 C67.34 87 66.68 87 66 87 C66 86.34 66 85.68 66 85 C65.01 85 64.02 85 63 85 C63 84.01 63 83.02 63 82 C62.34 82 61.68 82 61 82 C61 80.68 61 79.36 61 78 C60.360625 77.87625 59.72125 77.7525 59.0625 77.625 C58.381875 77.41875 57.70125 77.2125 57 77 C56.505 76.01 56.505 76.01 56 75 C55.34 75 54.68 75 54 75 C54 74.34 54 73.68 54 73 C53.34 73 52.68 73 52 73 C52 72.34 52 71.68 52 71 C51.01 71 50.02 71 49 71 C49 70.01 49 69.02 49 68 C47.68 68 46.36 68 45 68 C45 67.34 45 66.68 45 66 C43.35 66 41.7 66 40 66 C40 65.34 40 64.68 40 64 C37.69 64 35.38 64 33 64 C33 63.01 33 62.02 33 61 C29.04 61 25.08 61 21 61 C21 60.34 21 59.68 21 59 C18.03 59 15.06 59 12 59 Z " fill="#D5F2E5" transform="translate(1609,203)"/>
<path d="M0 0 C24.09 0 48.18 0 73 0 C73 0.99 73 1.98 73 3 C73.66 3 74.32 3 75 3 C75 4.32 75 5.64 75 7 C75.99 7 76.98 7 78 7 C78 7.99 78 8.98 78 10 C78.66 10 79.32 10 80 10 C80 11.32 80 12.64 80 14 C80.66 14 81.32 14 82 14 C82 14.99 82 15.98 82 17 C82.99 17 83.98 17 85 17 C85 18.32 85 19.64 85 21 C85.66 21 86.32 21 87 21 C87 21.99 87 22.98 87 24 C87.66 24 88.32 24 89 24 C89 25.32 89 26.64 89 28 C90.485 28.495 90.485 28.495 92 29 C92 30.32 92 31.64 92 33 C92.66 33 93.32 33 94 33 C94 33.99 94 34.98 94 36 C94.66 36 95.32 36 96 36 C96 37.32 96 38.64 96 40 C96.99 40 97.98 40 99 40 C99 40.99 99 41.98 99 43 C99.66 43 100.32 43 101 43 C101 44.32 101 45.64 101 47 C102.485 47.495 102.485 47.495 104 48 C104 48.66 104 49.32 104 50 C104.66 50 105.32 50 106 50 C106 51.32 106 52.64 106 54 C106.66 54 107.32 54 108 54 C108 54.99 108 55.98 108 57 C108.66 57 109.32 57 110 57 C110.495 58.98 110.495 58.98 111 61 C111.66 61 112.32 61 113 61 C113 62.65 113 64.3 113 66 C113.66 66 114.32 66 115 66 C115 66.66 115 67.32 115 68 C116.485 68.495 116.485 68.495 118 69 C118 70.32 118 71.64 118 73 C118.66 73 119.32 73 120 73 C120 73.66 120 74.32 120 75 C120.66 75 121.32 75 122 75 C122 75.99 122 76.98 122 78 C122.99 78 123.98 78 125 78 C125 77.01 125 76.02 125 75 C125.66 75 126.32 75 127 75 C127 73.68 127 72.36 127 71 C127.66 71 128.32 71 129 71 C129 70.01 129 69.02 129 68 C129.99 68 130.98 68 132 68 C132 66.68 132 65.36 132 64 C132.66 64 133.32 64 134 64 C134 63.01 134 62.02 134 61 C134.66 61 135.32 61 136 61 C136 59.68 136 58.36 136 57 C136.99 57 137.98 57 139 57 C139 56.01 139 55.02 139 54 C139.66 54 140.32 54 141 54 C141 52.68 141 51.36 141 50 C141.66 50 142.32 50 143 50 C143 49.01 143 48.02 143 47 C143.99 47 144.98 47 146 47 C146 45.68 146 44.36 146 43 C146.66 43 147.32 43 148 43 C148 42.01 148 41.02 148 40 C148.66 40 149.32 40 150 40 C150.33 38.68 150.66 37.36 151 36 C151.66 36 152.32 36 153 36 C153 35.01 153 34.02 153 33 C153.66 33 154.32 33 155 33 C155.33 31.35 155.66 29.7 156 28 C156.66 28 157.32 28 158 28 C158 27.34 158 26.68 158 26 C158.66 26 159.32 26 160 26 C160 24.35 160 22.7 160 21 C160.66 21 161.32 21 162 21 C162 20.34 162 19.68 162 19 C162.99 19 163.98 19 165 19 C165 17.35 165 15.7 165 14 C165.66 14 166.32 14 167 14 C167 13.34 167 12.68 167 12 C167.66 12 168.32 12 169 12 C169 10.35 169 8.7 169 7 C169.99 7 170.98 7 172 7 C172 6.34 172 5.68 172 5 C172.66 5 173.32 5 174 5 C174.33 3.35 174.66 1.7 175 0 C198.76 0 222.52 0 247 0 C247 0.99 247 1.98 247 3 C247.66 3 248.32 3 249 3 C249 7.62 249 12.24 249 17 C248.34 17 247.68 17 247 17 C247 18.32 247 19.64 247 21 C246.01 21 245.02 21 244 21 C244 21.99 244 22.98 244 24 C243.34 24 242.68 24 242 24 C242 25.32 242 26.64 242 28 C241.34 28 240.68 28 240 28 C240 28.99 240 29.98 240 31 C239.01 31 238.02 31 237 31 C237 31.66 237 32.32 237 33 C236.34 33 235.68 33 235 33 C235 34.65 235 36.3 235 38 C234.34 38 233.68 38 233 38 C233 38.66 233 39.32 233 40 C232.01 40 231.02 40 230 40 C230 41.65 230 43.3 230 45 C229.34 45 228.68 45 228 45 C228 45.66 228 46.32 228 47 C227.34 47 226.68 47 226 47 C226 47.99 226 48.98 226 50 C225.01 50 224.02 50 223 50 C223 51.32 223 52.64 223 54 C222.34 54 221.68 54 221 54 C221 54.99 221 55.98 221 57 C220.34 57 219.68 57 219 57 C218.67 58.32 218.34 59.64 218 61 C217.34 61 216.68 61 216 61 C216 61.99 216 62.98 216 64 C215.34 64 214.68 64 214 64 C214 64.66 214 65.32 214 66 C213.34 66 212.68 66 212 66 C211.67 67.65 211.34 69.3 211 71 C210.34 71 209.68 71 209 71 C209 71.66 209 72.32 209 73 C208.34 73 207.68 73 207 73 C207 74.65 207 76.3 207 78 C206.01 78 205.02 78 204 78 C204 78.66 204 79.32 204 80 C203.34 80 202.68 80 202 80 C202 81.65 202 83.3 202 85 C201.34 85 200.68 85 200 85 C200 85.66 200 86.32 200 87 C199.01 87 198.02 87 197 87 C197 87.99 197 88.98 197 90 C196.34 90 195.68 90 195 90 C195 91.32 195 92.64 195 94 C194.34 94 193.68 94 193 94 C193 94.99 193 95.98 193 97 C192.01 97 191.02 97 190 97 C190 98.32 190 99.64 190 101 C189.34 101 188.68 101 188 101 C188 101.99 188 102.98 188 104 C187.34 104 186.68 104 186 104 C186 104.66 186 105.32 186 106 C185.01 106 184.02 106 183 106 C183 107.65 183 109.3 183 111 C182.34 111 181.68 111 181 111 C181 111.66 181 112.32 181 113 C180.34 113 179.68 113 179 113 C178.67 114.65 178.34 116.3 178 118 C177.34 118 176.68 118 176 118 C176 118.66 176 119.32 176 120 C175.34 120 174.68 120 174 120 C173.855625 120.78375 173.71125 121.5675 173.5625 122.375 C173 125 173 125 172 127 C171.01 127 170.02 127 169 127 C169 127.66 169 128.32 169 129 C168.34 129 167.68 129 167 129 C167 129.99 167 130.98 167 132 C167.66 132 168.32 132 169 132 C169 133.32 169 134.64 169 136 C169.99 136.33 170.98 136.66 172 137 C172 137.66 172 138.32 172 139 C172.66 139 173.32 139 174 139 C174 139.66 174 140.32 174 141 C174.66 141 175.32 141 176 141 C176 142.65 176 144.3 176 146 C176.99 146 177.98 146 179 146 C179 146.66 179 147.32 179 148 C179.66 148 180.32 148 181 148 C181 148.99 181 149.98 181 151 C181.66 151 182.32 151 183 151 C183 151.66 183 152.32 183 153 C183.99 153.33 184.98 153.66 186 154 C186 155.32 186 156.64 186 158 C186.66 158 187.32 158 188 158 C188 158.66 188 159.32 188 160 C188.66 160 189.32 160 190 160 C190 160.66 190 161.32 190 162 C190.99 162.33 191.98 162.66 193 163 C193 164.32 193 165.64 193 167 C193.66 167 194.32 167 195 167 C195 167.66 195 168.32 195 169 C195.66 169 196.32 169 197 169 C197 169.99 197 170.98 197 172 C197.99 172 198.98 172 200 172 C200 173.32 200 174.64 200 176 C200.66 176 201.32 176 202 176 C202 176.99 202 177.98 202 179 C202.66 179 203.32 179 204 179 C204 179.66 204 180.32 204 181 C204.99 181.33 205.98 181.66 207 182 C207 183.32 207 184.64 207 186 C207.66 186 208.32 186 209 186 C209 186.66 209 187.32 209 188 C209.99 188.33 210.98 188.66 212 189 C212 189.66 212 190.32 212 191 C212.66 191 213.32 191 214 191 C214 192.32 214 193.64 214 195 C214.66 195 215.32 195 216 195 C216 195.99 216 196.98 216 198 C216.99 198 217.98 198 219 198 C219 198.66 219 199.32 219 200 C219.66 200 220.32 200 221 200 C221 201.65 221 203.3 221 205 C221.66 205 222.32 205 223 205 C223 205.66 223 206.32 223 207 C223.99 207 224.98 207 226 207 C226 207.66 226 208.32 226 209 C226.66 209 227.32 209 228 209 C228 210.65 228 212.3 228 214 C228.66 214 229.32 214 230 214 C230 214.66 230 215.32 230 216 C230.99 216 231.98 216 233 216 C233 216.99 233 217.98 233 219 C233.66 219 234.32 219 235 219 C235 220.32 235 221.64 235 223 C235.66 223 236.32 223 237 223 C237 223.99 237 224.98 237 226 C237.99 226 238.98 226 240 226 C240 226.66 240 227.32 240 228 C240.66 228 241.32 228 242 228 C242 229.65 242 231.3 242 233 C242.66 233 243.32 233 244 233 C244 233.66 244 234.32 244 235 C244.99 235 245.98 235 247 235 C247 235.99 247 236.98 247 238 C247.66 238 248.32 238 249 238 C249 238.66 249 239.32 249 240 C249.66 240 250.32 240 251 240 C251 241.65 251 243.3 251 245 C251.99 245 252.98 245 254 245 C254 248.63 254 252.26 254 256 C253.01 256 252.02 256 251 256 C251 256.99 251 257.98 251 259 C250.34 259 249.68 259 249 259 C249 259.66 249 260.32 249 261 C225.9 261 202.8 261 179 261 C179 260.34 179 259.68 179 259 C178.01 259 177.02 259 176 259 C176 258.01 176 257.02 176 256 C175.34 256 174.68 256 174 256 C174 255.34 174 254.68 174 254 C173.34 254 172.68 254 172 254 C172 253.01 172 252.02 172 251 C171.01 251 170.02 251 169 251 C169 249.68 169 248.36 169 247 C168.34 247 167.68 247 167 247 C167 246.01 167 245.02 167 244 C166.34 244 165.68 244 165 244 C165 242.68 165 241.36 165 240 C164.01 240 163.02 240 162 240 C162 239.01 162 238.02 162 237 C161.34 237 160.68 237 160 237 C160 235.68 160 234.36 160 233 C159.34 233 158.68 233 158 233 C158 232.01 158 231.02 158 230 C157.01 230 156.02 230 155 230 C155 228.68 155 227.36 155 226 C154.34 226 153.68 226 153 226 C153 225.01 153 224.02 153 223 C152.34 223 151.68 223 151 223 C150.67 221.68 150.34 220.36 150 219 C149.34 219 148.68 219 148 219 C148 218.01 148 217.02 148 216 C147.34 216 146.68 216 146 216 C146 214.68 146 213.36 146 212 C145.01 211.67 144.02 211.34 143 211 C143 210.34 143 209.68 143 209 C142.34 209 141.68 209 141 209 C141 207.68 141 206.36 141 205 C140.34 205 139.68 205 139 205 C139 204.01 139 203.02 139 202 C138.01 202 137.02 202 136 202 C136 201.34 136 200.68 136 200 C135.34 200 134.68 200 134 200 C134 198.35 134 196.7 134 195 C133.34 195 132.68 195 132 195 C132 194.34 132 193.68 132 193 C131.01 192.67 130.02 192.34 129 192 C129 190.68 129 189.36 129 188 C128.34 188 127.68 188 127 188 C127 187.34 127 186.68 127 186 C126.34 186 125.68 186 125 186 C125 184.35 125 182.7 125 181 C124.01 181 123.02 181 122 181 C122 182.65 122 184.3 122 186 C121.34 186 120.68 186 120 186 C120 186.66 120 187.32 120 188 C119.34 188 118.68 188 118 188 C118 188.66 118 189.32 118 190 C117.34 190.33 116.68 190.66 116 191 C115.34786708 193.02463255 115.34786708 193.02463255 115 195 C114.34 195 113.68 195 113 195 C113 195.99 113 196.98 113 198 C112.34 198 111.68 198 111 198 C110.67 199.32 110.34 200.64 110 202 C109.34 202 108.68 202 108 202 C108 202.99 108 203.98 108 205 C107.34 205 106.68 205 106 205 C106 205.66 106 206.32 106 207 C105.34 207 104.68 207 104 207 C103.67 208.65 103.34 210.3 103 212 C102.34 212 101.68 212 101 212 C101 212.66 101 213.32 101 214 C100.34 214 99.68 214 99 214 C99 215.65 99 217.3 99 219 C98.01 219 97.02 219 96 219 C96 219.66 96 220.32 96 221 C95.34 221 94.68 221 94 221 C93.855625 221.78375 93.71125 222.5675 93.5625 223.375 C93 226 93 226 92 228 C91.01 228 90.02 228 89 228 C89 228.66 89 229.32 89 230 C88.34 230 87.68 230 87 230 C87 231.65 87 233.3 87 235 C86.34 235 85.68 235 85 235 C85 235.66 85 236.32 85 237 C84.01 237 83.02 237 82 237 C82 238.65 82 240.3 82 242 C81.34 242 80.68 242 80 242 C79.34 243.65 78.68 245.3 78 247 C77.01 247 76.02 247 75 247 C75 248.65 75 250.3 75 252 C74.34 252 73.68 252 73 252 C73 252.66 73 253.32 73 254 C72.34 254 71.68 254 71 254 C70.67 255.65 70.34 257.3 70 259 C69.34 259 68.68 259 68 259 C68 259.66 68 260.32 68 261 C58.66421561 261.06946198 49.32851996 261.12279178 39.99253368 261.15543652 C35.65760875 261.17110311 31.3228604 261.19235934 26.98803711 261.22631836 C22.80591912 261.25887664 18.62397115 261.27684553 14.44173622 261.28463173 C12.84489578 261.29018162 11.24806481 261.30101906 9.65129662 261.31719017 C7.41730906 261.33891808 5.18402712 261.34196896 2.94995117 261.34057617 C1.67754074 261.34723801 0.40513031 261.35389984 -0.90583801 261.36076355 C-4 261 -4 261 -5.9094696 259.69551086 C-7.73505819 256.8571624 -7.43089762 253.76069422 -7.375 250.5 C-7.38660156 249.82324219 -7.39820313 249.14648438 -7.41015625 248.44921875 C-7.39264903 245.49049841 -7.34259841 243.48231731 -5.6015625 241.03125 C-4 240 -4 240 -2 240 C-1.34 237.69 -0.68 235.38 0 233 C0.99 233 1.98 233 3 233 C3 232.01 3 231.02 3 230 C3.66 230 4.32 230 5 230 C5 229.34 5 228.68 5 228 C5.66 228 6.32 228 7 228 C7 226.68 7 225.36 7 224 C8.375 222.25 8.375 222.25 10 221 C10.66 221 11.32 221 12 221 C12 220.34 12 219.68 12 219 C12.66 219 13.32 219 14 219 C14.33 217.35 14.66 215.7 15 214 C15.66 214 16.32 214 17 214 C17 213.34 17 212.68 17 212 C17.66 212 18.32 212 19 212 C19 211.01 19 210.02 19 209 C19.66 209 20.32 209 21 209 C21 207.68 21 206.36 21 205 C21.99 205 22.98 205 24 205 C24 204.01 24 203.02 24 202 C24.66 202 25.32 202 26 202 C26 201.34 26 200.68 26 200 C26.66 200 27.32 200 28 200 C28.33 198.35 28.66 196.7 29 195 C29.66 195 30.32 195 31 195 C31 194.34 31 193.68 31 193 C31.66 193 32.32 193 33 193 C33 192.34 33 191.68 33 191 C33.66 191 34.32 191 35 191 C35.33 189.35 35.66 187.7 36 186 C36.66 186 37.32 186 38 186 C38.66 184.35 39.32 182.7 40 181 C40.66 181 41.32 181 42 181 C42.33 179.68 42.66 178.36 43 177 C43.66 177 44.32 177 45 177 C45 176.01 45 175.02 45 174 C45.66 174 46.32 174 47 174 C47 173.34 47 172.68 47 172 C47.66 171.67 48.32 171.34 49 171 C49.65213292 168.97536745 49.65213292 168.97536745 50 167 C50.66 167 51.32 167 52 167 C52 166.34 52 165.68 52 165 C52.66 165 53.32 165 54 165 C54 164.01 54 163.02 54 162 C54.99 162 55.98 162 57 162 C57 160.68 57 159.36 57 158 C57.66 158 58.32 158 59 158 C59 157.01 59 156.02 59 155 C59.66 155 60.32 155 61 155 C61 154.34 61 153.68 61 153 C61.99 153 62.98 153 64 153 C64 151.35 64 149.7 64 148 C64.66 148 65.32 148 66 148 C66 147.34 66 146.68 66 146 C66.66 146 67.32 146 68 146 C68 145.34 68 144.68 68 144 C68.99 144 69.98 144 71 144 C71 143.01 71 142.02 71 141 C71.66 141 72.32 141 73 141 C73 139.68 73 138.36 73 137 C73.66 137 74.32 137 75 137 C75 136.01 75 135.02 75 134 C75.99 134 76.98 134 78 134 C78 133.34 78 132.68 78 132 C78.66 132 79.32 132 80 132 C80 131.01 80 130.02 80 129 C79.34 129 78.68 129 78 129 C78 128.34 78 127.68 78 127 C77.01 127 76.02 127 75 127 C75 125.35 75 123.7 75 122 C74.34 122 73.68 122 73 122 C73 121.34 73 120.68 73 120 C72.34 120 71.68 120 71 120 C71 119.34 71 118.68 71 118 C69.515 117.505 69.515 117.505 68 117 C68 115.68 68 114.36 68 113 C67.34 113 66.68 113 66 113 C66 112.34 66 111.68 66 111 C65.34 111 64.68 111 64 111 C64 109.35 64 107.7 64 106 C63.01 106 62.02 106 61 106 C61 105.34 61 104.68 61 104 C60.34 104 59.68 104 59 104 C59 103.01 59 102.02 59 101 C58.34 101 57.68 101 57 101 C57 99.68 57 98.36 57 97 C56.01 97 55.02 97 54 97 C54 96.01 54 95.02 54 94 C53.34 94 52.68 94 52 94 C52 92.68 52 91.36 52 90 C51.34 90 50.68 90 50 90 C48.375 88.625 48.375 88.625 47 87 C47 86.34 47 85.68 47 85 C46.34 85 45.68 85 45 85 C45 83.35 45 81.7 45 80 C44.01 80 43.02 80 42 80 C42 79.34 42 78.68 42 78 C41.34 78 40.68 78 40 78 C40 76.35 40 74.7 40 73 C39.34 73 38.68 73 38 73 C38 72.34 38 71.68 38 71 C37.01 71 36.02 71 35 71 C35 70.01 35 69.02 35 68 C34.34 68 33.68 68 33 68 C33 66.68 33 65.36 33 64 C32.34 64 31.68 64 31 64 C31 63.01 31 62.02 31 61 C30.01 61 29.02 61 28 61 C28 59.68 28 58.36 28 57 C27.34 57 26.68 57 26 57 C26 56.01 26 55.02 26 54 C25.34 54 24.68 54 24 54 C24 53.34 24 52.68 24 52 C22.515 51.505 22.515 51.505 21 51 C21 49.68 21 48.36 21 47 C20.34 47 19.68 47 19 47 C19 46.34 19 45.68 19 45 C18.34 45 17.68 45 17 45 C17 43.35 17 41.7 17 40 C16.01 40 15.02 40 14 40 C14 39.34 14 38.68 14 38 C13.34 38 12.68 38 12 38 C12 37.01 12 36.02 12 35 C11.34 35 10.68 35 10 35 C10 33.68 10 32.36 10 31 C9.01 31 8.02 31 7 31 C7 30.01 7 29.02 7 28 C6.34 28 5.68 28 5 28 C5 26.68 5 25.36 5 24 C4.34 24 3.68 24 3 24 C3 23.01 3 22.02 3 21 C2.01 21 1.02 21 0 21 C0 20.34 0 19.68 0 19 C-0.66 19 -1.32 19 -2 19 C-2 13.72 -2 8.44 -2 3 C-1.34 3 -0.68 3 0 3 C0 2.01 0 1.02 0 0 Z " fill="#D5F2E5" transform="translate(1752,203)"/>
<path d="M0 0 C10.89 0 21.78 0 33 0 C33 0.99 33 1.98 33 3 C33.66 3 34.32 3 35 3 C35 112.23 35 221.46 35 334 C34.34 334 33.68 334 33 334 C33 334.66 33 335.32 33 336 C22.11 336 11.22 336 0 336 C0 335.34 0 334.68 0 334 C-0.66 334 -1.32 334 -2 334 C-2 332.35 -2 330.7 -2 329 C-2.99 328.67 -3.98 328.34 -5 328 C-5 321.4 -5 314.8 -5 308 C-5.66 308 -6.32 308 -7 308 C-7 308.66 -7 309.32 -7 310 C-8.65 310 -10.3 310 -12 310 C-12 310.66 -12 311.32 -12 312 C-13.32 312 -14.64 312 -16 312 C-16 312.99 -16 313.98 -16 315 C-16.99 315 -17.98 315 -19 315 C-19 315.66 -19 316.32 -19 317 C-20.32 317 -21.64 317 -23 317 C-23 317.66 -23 318.32 -23 319 C-24.65 319.33 -26.3 319.66 -28 320 C-28 320.66 -28 321.32 -28 322 C-29.65 322 -31.3 322 -33 322 C-33 322.66 -33 323.32 -33 324 C-34.32 324 -35.64 324 -37 324 C-37.33 324.99 -37.66 325.98 -38 327 C-39.32 327 -40.64 327 -42 327 C-42 327.66 -42 328.32 -42 329 C-44.31 329 -46.62 329 -49 329 C-49 329.66 -49 330.32 -49 331 C-51.31 331 -53.62 331 -56 331 C-56 331.99 -56 332.98 -56 334 C-59.3 334 -62.6 334 -66 334 C-66 334.66 -66 335.32 -66 336 C-82.83 336 -99.66 336 -117 336 C-117 335.34 -117 334.68 -117 334 C-119.97 334 -122.94 334 -126 334 C-126.495 332.515 -126.495 332.515 -127 331 C-129.97 331 -132.94 331 -136 331 C-136 330.34 -136 329.68 -136 329 C-137.65 329 -139.3 329 -141 329 C-141 328.34 -141 327.68 -141 327 C-142.32 327 -143.64 327 -145 327 C-145 326.01 -145 325.02 -145 324 C-146.65 324 -148.3 324 -150 324 C-150 323.34 -150 322.68 -150 322 C-151.65 322 -153.3 322 -155 322 C-155 321.34 -155 320.68 -155 320 C-156.65 319.67 -158.3 319.34 -160 319 C-160 318.34 -160 317.68 -160 317 C-161.32 317 -162.64 317 -164 317 C-164 316.34 -164 315.68 -164 315 C-164.99 315 -165.98 315 -167 315 C-167 314.01 -167 313.02 -167 312 C-167.66 312 -168.32 312 -169 312 C-169 311.34 -169 310.68 -169 310 C-169.78375 309.855625 -170.5675 309.71125 -171.375 309.5625 C-174 309 -174 309 -176 308 C-176 307.01 -176 306.02 -176 305 C-176.66 305 -177.32 305 -178 305 C-178 304.34 -178 303.68 -178 303 C-178.99 303 -179.98 303 -181 303 C-181 302.34 -181 301.68 -181 301 C-181.66 301 -182.32 301 -183 301 C-183 300.01 -183 299.02 -183 298 C-183.66 298 -184.32 298 -185 298 C-185 297.34 -185 296.68 -185 296 C-185.99 296 -186.98 296 -188 296 C-188 295.34 -188 294.68 -188 294 C-188.66 294 -189.32 294 -190 294 C-190 293.01 -190 292.02 -190 291 C-190.66 291 -191.32 291 -192 291 C-192 289.68 -192 288.36 -192 287 C-192.99 287 -193.98 287 -195 287 C-195 286.01 -195 285.02 -195 284 C-195.66 284 -196.32 284 -197 284 C-197 283.34 -197 282.68 -197 282 C-197.66 282 -198.32 282 -199 282 C-199 280.35 -199 278.7 -199 277 C-199.99 277 -200.98 277 -202 277 C-202 275.68 -202 274.36 -202 273 C-202.66 273 -203.32 273 -204 273 C-204 271.35 -204 269.7 -204 268 C-204.99 267.67 -205.98 267.34 -207 267 C-207 265.68 -207 264.36 -207 263 C-207.66 263 -208.32 263 -209 263 C-209 261.35 -209 259.7 -209 258 C-209.66 258 -210.32 258 -211 258 C-211 255.69 -211 253.38 -211 251 C-211.99 251 -212.98 251 -214 251 C-214 248.69 -214 246.38 -214 244 C-214.66 244 -215.32 244 -216 244 C-216 241.03 -216 238.06 -216 235 C-216.66 235 -217.32 235 -218 235 C-218 217.84 -218 200.68 -218 183 C-217.34 183 -216.68 183 -216 183 C-216 180.03 -216 177.06 -216 174 C-215.34 174 -214.68 174 -214 174 C-214 171.69 -214 169.38 -214 167 C-213.01 167 -212.02 167 -211 167 C-211 164.69 -211 162.38 -211 160 C-210.34 160 -209.68 160 -209 160 C-209 158.35 -209 156.7 -209 155 C-208.34 155 -207.68 155 -207 155 C-206.67 153.35 -206.34 151.7 -206 150 C-205.34 150 -204.68 150 -204 150 C-204 148.68 -204 147.36 -204 146 C-203.34 146 -202.68 146 -202 146 C-202 144.35 -202 142.7 -202 141 C-201.01 141 -200.02 141 -199 141 C-199 140.34 -199 139.68 -199 139 C-198.34 139 -197.68 139 -197 139 C-197 137.35 -197 135.7 -197 134 C-196.34 134 -195.68 134 -195 134 C-195 133.34 -195 132.68 -195 132 C-194.01 132 -193.02 132 -192 132 C-192 131.01 -192 130.02 -192 129 C-191.34 129 -190.68 129 -190 129 C-190 127.68 -190 126.36 -190 125 C-189.34 125 -188.68 125 -188 125 C-188 124.01 -188 123.02 -188 122 C-187.01 122 -186.02 122 -185 122 C-185 121.34 -185 120.68 -185 120 C-184.34 120 -183.68 120 -183 120 C-183 119.34 -183 118.68 -183 118 C-182.34 118 -181.68 118 -181 118 C-181 117.01 -181 116.02 -181 115 C-180.01 115 -179.02 115 -178 115 C-178 114.34 -178 113.68 -178 113 C-176.68 113 -175.36 113 -174 113 C-174 112.34 -174 111.68 -174 111 C-172.625 109.375 -172.625 109.375 -171 108 C-170.34 108 -169.68 108 -169 108 C-169 107.34 -169 106.68 -169 106 C-164.61538462 103 -164.61538462 103 -162 103 C-162 102.34 -162 101.68 -162 101 C-161.01 101 -160.02 101 -159 101 C-159 100.34 -159 99.68 -159 99 C-157.68 99 -156.36 99 -155 99 C-154.505 97.515 -154.505 97.515 -154 96 C-152.68 96 -151.36 96 -150 96 C-150 95.34 -150 94.68 -150 94 C-148.35 94 -146.7 94 -145 94 C-145 93.34 -145 92.68 -145 92 C-142.69 92 -140.38 92 -138 92 C-138 91.01 -138 90.02 -138 89 C-136.68 89 -135.36 89 -134 89 C-134 88.34 -134 87.68 -134 87 C-130.7 87 -127.4 87 -124 87 C-124 86.34 -124 85.68 -124 85 C-121.03 85 -118.06 85 -115 85 C-114.505 83.515 -114.505 83.515 -114 82 C-99.48 82 -84.96 82 -70 82 C-70 82.99 -70 83.98 -70 85 C-66.37 85 -62.74 85 -59 85 C-59 85.66 -59 86.32 -59 87 C-56.69 87 -54.38 87 -52 87 C-52 87.66 -52 88.32 -52 89 C-49.69 89 -47.38 89 -45 89 C-44.67 89.99 -44.34 90.98 -44 92 C-42.02 92 -40.04 92 -38 92 C-38 92.66 -38 93.32 -38 94 C-36.35 94 -34.7 94 -33 94 C-33 94.66 -33 95.32 -33 96 C-31.35 96.33 -29.7 96.66 -28 97 C-28 97.66 -28 98.32 -28 99 C-27.34 99 -26.68 99 -26 99 C-26 99.66 -26 100.32 -26 101 C-24.35 101 -22.7 101 -21 101 C-21 101.66 -21 102.32 -21 103 C-19.35 103.33 -17.7 103.66 -16 104 C-16 104.66 -16 105.32 -16 106 C-15.34 106 -14.68 106 -14 106 C-14 106.66 -14 107.32 -14 108 C-12.35 108 -10.7 108 -9 108 C-9 108.99 -9 109.98 -9 111 C-7.68 111 -6.36 111 -5 111 C-5 77.01 -5 43.02 -5 8 C-4.01 7.67 -3.02 7.34 -2 7 C-2 5.35 -2 3.7 -2 2 C-1.34 2 -0.68 2 0 2 C0 1.34 0 0.68 0 0 Z M-101 113 C-101 113.66 -101 114.32 -101 115 C-104.96 115 -108.92 115 -113 115 C-113 115.66 -113 116.32 -113 117 C-115.31 117.33 -117.62 117.66 -120 118 C-120 118.66 -120 119.32 -120 120 C-122.31 120 -124.62 120 -127 120 C-127 120.66 -127 121.32 -127 122 C-128.32 122 -129.64 122 -131 122 C-131.33 122.66 -131.66 123.32 -132 124 C-134.0625 124.625 -134.0625 124.625 -136 125 C-136 125.66 -136 126.32 -136 127 C-136.66 127 -137.32 127 -138 127 C-138 127.66 -138 128.32 -138 129 C-139.65 129 -141.3 129 -143 129 C-143 129.99 -143 130.98 -143 132 C-143.66 132 -144.32 132 -145 132 C-145 132.66 -145 133.32 -145 134 C-145.99 134 -146.98 134 -148 134 C-148 134.66 -148 135.32 -148 136 C-148.66 136 -149.32 136 -150 136 C-150 136.99 -150 137.98 -150 139 C-150.99 139 -151.98 139 -153 139 C-153 139.66 -153 140.32 -153 141 C-153.66 141 -154.32 141 -155 141 C-155 141.66 -155 142.32 -155 143 C-155.66 143 -156.32 143 -157 143 C-157 143.99 -157 144.98 -157 146 C-157.99 146 -158.98 146 -160 146 C-160 146.66 -160 147.32 -160 148 C-160.66 148 -161.32 148 -162 148 C-162.66 150.31 -163.32 152.62 -164 155 C-164.99 155 -165.98 155 -167 155 C-167 156.65 -167 158.3 -167 160 C-167.66 160 -168.32 160 -169 160 C-169 161.32 -169 162.64 -169 164 C-169.66 164 -170.32 164 -171 164 C-171.12375 164.639375 -171.2475 165.27875 -171.375 165.9375 C-171.58125 166.618125 -171.7875 167.29875 -172 168 C-172.99 168.495 -172.99 168.495 -174 169 C-174 170.65 -174 172.3 -174 174 C-174.66 174 -175.32 174 -176 174 C-176 176.31 -176 178.62 -176 181 C-176.66 181 -177.32 181 -178 181 C-178 183.97 -178 186.94 -178 190 C-178.99 190 -179.98 190 -181 190 C-181 202.54 -181 215.08 -181 228 C-180.01 228 -179.02 228 -178 228 C-178 230.97 -178 233.94 -178 237 C-177.34 237 -176.68 237 -176 237 C-176 239.31 -176 241.62 -176 244 C-175.34 244 -174.68 244 -174 244 C-174 246.31 -174 248.62 -174 251 C-173.01 251 -172.02 251 -171 251 C-171 252.65 -171 254.3 -171 256 C-170.34 256 -169.68 256 -169 256 C-169 256.99 -169 257.98 -169 259 C-168.34 259 -167.68 259 -167 259 C-167 260.32 -167 261.64 -167 263 C-166.01 263 -165.02 263 -164 263 C-164 264.65 -164 266.3 -164 268 C-163.34 268 -162.68 268 -162 268 C-162 268.66 -162 269.32 -162 270 C-161.34 270 -160.68 270 -160 270 C-160 270.99 -160 271.98 -160 273 C-159.01 273 -158.02 273 -157 273 C-157 273.66 -157 274.32 -157 275 C-156.34 275 -155.68 275 -155 275 C-155 275.66 -155 276.32 -155 277 C-154.34 277 -153.68 277 -153 277 C-153 277.99 -153 278.98 -153 280 C-152.01 280 -151.02 280 -150 280 C-150 280.66 -150 281.32 -150 282 C-149.34 282 -148.68 282 -148 282 C-148 282.66 -148 283.32 -148 284 C-146.66666667 285.66666667 -146.66666667 285.66666667 -145 287 C-144.34 287 -143.68 287 -143 287 C-143 287.66 -143 288.32 -143 289 C-141.68 289 -140.36 289 -139 289 C-139 289.66 -139 290.32 -139 291 C-138.01 291 -137.02 291 -136 291 C-136 291.99 -136 292.98 -136 294 C-134.35 294 -132.7 294 -131 294 C-131 294.66 -131 295.32 -131 296 C-129.68 296 -128.36 296 -127 296 C-127 296.66 -127 297.32 -127 298 C-125.35 298 -123.7 298 -122 298 C-122 298.99 -122 299.98 -122 301 C-119.69 301 -117.38 301 -115 301 C-115 301.66 -115 302.32 -115 303 C-111.04 303 -107.08 303 -103 303 C-103 303.66 -103 304.32 -103 305 C-96.73 305 -90.46 305 -84 305 C-84 304.34 -84 303.68 -84 303 C-80.37 303 -76.74 303 -73 303 C-73 302.34 -73 301.68 -73 301 C-70.69 301 -68.38 301 -66 301 C-65.67 300.34 -65.34 299.68 -65 299 C-62.9375 298.375 -62.9375 298.375 -61 298 C-61 297.34 -61 296.68 -61 296 C-59.35 296 -57.7 296 -56 296 C-56 295.34 -56 294.68 -56 294 C-54.35 293.67 -52.7 293.34 -51 293 C-51 292.34 -51 291.68 -51 291 C-50.34 291 -49.68 291 -49 291 C-49 290.34 -49 289.68 -49 289 C-47.35 289 -45.7 289 -44 289 C-44 288.34 -44 287.68 -44 287 C-43.34 287 -42.68 287 -42 287 C-42 286.01 -42 285.02 -42 284 C-41.34 284 -40.68 284 -40 284 C-40 283.34 -40 282.68 -40 282 C-39.01 282 -38.02 282 -37 282 C-37 281.34 -37 280.68 -37 280 C-36.34 280 -35.68 280 -35 280 C-35 279.01 -35 278.02 -35 277 C-34.34 277 -33.68 277 -33 277 C-33 276.34 -33 275.68 -33 275 C-32.01 275 -31.02 275 -30 275 C-30 274.34 -30 273.68 -30 273 C-29.34 273 -28.68 273 -28 273 C-28 272.01 -28 271.02 -28 270 C-27.34 270 -26.68 270 -26 270 C-26 268.68 -26 267.36 -26 266 C-25.01 266 -24.02 266 -23 266 C-23 265.01 -23 264.02 -23 263 C-22.34 263 -21.68 263 -21 263 C-21 261.68 -21 260.36 -21 259 C-20.34 259 -19.68 259 -19 259 C-18.814375 258.0409375 -18.814375 258.0409375 -18.625 257.0625 C-18.41875 256.381875 -18.2125 255.70125 -18 255 C-17.34 254.67 -16.68 254.34 -16 254 C-16 252.35 -16 250.7 -16 249 C-15.34 249 -14.68 249 -14 249 C-14 247.35 -14 245.7 -14 244 C-13.34 244 -12.68 244 -12 244 C-11.87625 243.030625 -11.7525 242.06125 -11.625 241.0625 C-11.41875 240.051875 -11.2125 239.04125 -11 238 C-10.34 237.67 -9.68 237.34 -9 237 C-9 234.03 -9 231.06 -9 228 C-8.34 228 -7.68 228 -7 228 C-7 215.46 -7 202.92 -7 190 C-7.66 190 -8.32 190 -9 190 C-9 187.03 -9 184.06 -9 181 C-9.99 181 -10.98 181 -12 181 C-12 178.69 -12 176.38 -12 174 C-12.66 174 -13.32 174 -14 174 C-14 172.35 -14 170.7 -14 169 C-14.66 169 -15.32 169 -16 169 C-16 167.35 -16 165.7 -16 164 C-16.99 164 -17.98 164 -19 164 C-19 162.68 -19 161.36 -19 160 C-19.66 160 -20.32 160 -21 160 C-21 158.35 -21 156.7 -21 155 C-21.66 155 -22.32 155 -23 155 C-23 154.34 -23 153.68 -23 153 C-23.66 152.67 -24.32 152.34 -25 152 C-25.625 149.9375 -25.625 149.9375 -26 148 C-26.66 148 -27.32 148 -28 148 C-28 147.34 -28 146.68 -28 146 C-28.66 146 -29.32 146 -30 146 C-30 145.01 -30 144.02 -30 143 C-30.99 143 -31.98 143 -33 143 C-33 142.34 -33 141.68 -33 141 C-33.66 141 -34.32 141 -35 141 C-35 140.34 -35 139.68 -35 139 C-35.66 139 -36.32 139 -37 139 C-37 138.01 -37 137.02 -37 136 C-37.99 136 -38.98 136 -40 136 C-40 135.34 -40 134.68 -40 134 C-40.66 134 -41.32 134 -42 134 C-42 133.34 -42 132.68 -42 132 C-42.66 132 -43.32 132 -44 132 C-44 131.01 -44 130.02 -44 129 C-45.65 129 -47.3 129 -49 129 C-49 128.34 -49 127.68 -49 127 C-51.95377498 124.63019987 -51.95377498 124.63019987 -56 125 C-56 124.01 -56 123.02 -56 122 C-57.65 122 -59.3 122 -61 122 C-61 121.34 -61 120.68 -61 120 C-63.31 120 -65.62 120 -68 120 C-68 119.34 -68 118.68 -68 118 C-68.969375 117.87625 -69.93875 117.7525 -70.9375 117.625 C-71.948125 117.41875 -72.95875 117.2125 -74 117 C-74.495 116.01 -74.495 116.01 -75 115 C-78.96 115 -82.92 115 -87 115 C-87 114.34 -87 113.68 -87 113 C-91.62 113 -96.24 113 -101 113 Z " fill="#2FC183" transform="translate(2769,128)"/>
<path d="M0 0 C62.7 0 125.4 0 190 0 C190 0.99 190 1.98 190 3 C190.99 3 191.98 3 193 3 C193 12.24 193 21.48 193 31 C192.01 31 191.02 31 190 31 C190 31.66 190 32.32 190 33 C189.34 33 188.68 33 188 33 C188 33.66 188 34.32 188 35 C140.15 35 92.3 35 43 35 C42.67 35.99 42.34 36.98 42 38 C41.34 38 40.68 38 40 38 C40 38.66 40 39.32 40 40 C39.34 40 38.68 40 38 40 C38 75.64 38 111.28 38 148 C38.66 148 39.32 148 40 148 C40 149.65 40 151.3 40 153 C40.99 153 41.98 153 43 153 C43 153.66 43 154.32 43 155 C90.19 155 137.38 155 186 155 C186 155.66 186 156.32 186 157 C186.66 157 187.32 157 188 157 C188 157.99 188 158.98 188 160 C188.66 160 189.32 160 190 160 C190 167.59 190 175.18 190 183 C189.34 183 188.68 183 188 183 C188 183.99 188 184.98 188 186 C187.34 186 186.68 186 186 186 C186 186.66 186 187.32 186 188 C138.81 188 91.62 188 43 188 C43 188.66 43 189.32 43 190 C42.01 190 41.02 190 40 190 C40 191.65 40 193.3 40 195 C39.34 195 38.68 195 38 195 C38 228.33 38 261.66 38 296 C38.66 296 39.32 296 40 296 C40 296.66 40 297.32 40 298 C40.99 298.33 41.98 298.66 43 299 C43 299.66 43 300.32 43 301 C90.85 301 138.7 301 188 301 C188 301.66 188 302.32 188 303 C188.66 303 189.32 303 190 303 C190 303.66 190 304.32 190 305 C190.99 305 191.98 305 193 305 C193 313.58 193 322.16 193 331 C192.01 331 191.02 331 190 331 C190 331.99 190 332.98 190 334 C189.34 334 188.68 334 188 334 C188 334.66 188 335.32 188 336 C125.96 336 63.92 336 0 336 C0 335.34 0 334.68 0 334 C-0.66 334 -1.32 334 -2 334 C-2 333.01 -2 332.02 -2 331 C-2.66 331 -3.32 331 -4 331 C-4 223.42 -4 115.84 -4 5 C-3.34 5 -2.68 5 -2 5 C-2 4.01 -2 3.02 -2 2 C-1.34 2 -0.68 2 0 2 C0 1.34 0 0.68 0 0 Z " fill="#30C284" transform="translate(2325,128)"/>
<path d="M0 0 C21.12 0 42.24 0 64 0 C64 0.66 64 1.32 64 2 C64.66 2 65.32 2 66 2 C66 2.99 66 3.98 66 5 C66.66 5 67.32 5 68 5 C68 5.66 68 6.32 68 7 C68.99 7 69.98 7 71 7 C71 7.66 71 8.32 71 9 C71.66 9 72.32 9 73 9 C73 9.99 73 10.98 73 12 C73.66 12 74.32 12 75 12 C75 12.66 75 13.32 75 14 C75.99 14 76.98 14 78 14 C78 14.66 78 15.32 78 16 C78.66 16 79.32 16 80 16 C80 16.99 80 17.98 80 19 C80.66 19 81.32 19 82 19 C82 19.66 82 20.32 82 21 C82.99 21 83.98 21 85 21 C85 22.65 85 24.3 85 26 C85.66 26 86.32 26 87 26 C87 52.07 87 78.14 87 105 C86.34 105 85.68 105 85 105 C85 106.65 85 108.3 85 110 C84.34 110 83.68 110 83 110 C82.67 111.65 82.34 113.3 82 115 C80.68 115 79.36 115 78 115 C78 115.66 78 116.32 78 117 C53.25 117 28.5 117 3 117 C3 116.34 3 115.68 3 115 C1.35 115 -0.3 115 -2 115 C-2 114.34 -2 113.68 -2 113 C-2.66 113 -3.32 113 -4 113 C-4 111.35 -4 109.7 -4 108 C-4.99 108 -5.98 108 -7 108 C-7 75 -7 42 -7 8 C-6.01 7.67 -5.02 7.34 -4 7 C-4 6.34 -4 5.68 -4 5 C-3.34 5 -2.68 5 -2 5 C-2 4.01 -2 3.02 -2 2 C-1.34 2 -0.68 2 0 2 C0 1.34 0 0.68 0 0 Z M54 9 C54 12.96 54 16.92 54 21 C54.99 21 55.98 21 57 21 C57 22.65 57 24.3 57 26 C57.66 26 58.32 26 59 26 C59 26.66 59 27.32 59 28 C60.65 28 62.3 28 64 28 C64 28.66 64 29.32 64 30 C67.63 30 71.26 30 75 30 C75 29.34 75 28.68 75 28 C74.34 28 73.68 28 73 28 C73 27.34 73 26.68 73 26 C72.34 26 71.68 26 71 26 C71 25.01 71 24.02 71 23 C70.01 23 69.02 23 68 23 C68 22.34 68 21.68 68 21 C67.34 21 66.68 21 66 21 C66 20.34 66 19.68 66 19 C65.34 19 64.68 19 64 19 C64 18.01 64 17.02 64 16 C63.01 16 62.02 16 61 16 C61 15.34 61 14.68 61 14 C60.34 14 59.68 14 59 14 C59 13.34 59 12.68 59 12 C58.34 12 57.68 12 57 12 C57 11.01 57 10.02 57 9 C56.01 9 55.02 9 54 9 Z " fill="#30C184" transform="translate(756,234)"/>
</svg>
